<svg width="29" height="29" viewBox="0 0 29 29" fill="none" xmlns="http://www.w3.org/2000/svg">
<g clip-path="url(#clip0_161_253)">
<path d="M22.5678 0H6.42967C4.72442 0 3.089 0.677396 1.88321 1.88319C0.677411 3.08899 0 4.72439 0 6.42964V22.5678C0 24.273 0.677411 25.9084 1.88321 27.1142C3.089 28.32 4.72442 28.9974 6.42967 28.9974H22.5678C24.2728 28.9967 25.9078 28.3191 27.1135 27.1135C28.3191 25.9078 28.9968 24.2728 28.9974 22.5678V6.42964C28.9968 4.72459 28.3191 3.08959 27.1135 1.88394C25.9078 0.678292 24.2728 0.000677816 22.5678 0ZM25.0793 13.9565C23.5448 14.0691 21.9872 14.0997 20.4604 14.3043C16.9898 14.7621 15.1074 16.7366 14.7519 20.2225C14.5857 21.8619 14.4962 23.5115 14.2123 25.1713C14.1816 24.8926 14.1458 24.6138 14.1228 24.335C13.9821 22.6573 13.9386 20.9667 13.6905 19.3043C13.3018 16.7059 11.5524 14.8952 8.97187 14.4629C7.2353 14.1739 5.4578 14.1177 3.69566 13.9514C3.40921 13.9258 3.12021 13.9105 2.83376 13.8926C2.83376 13.8261 2.83376 13.7622 2.83376 13.6957C4.53453 13.5652 6.24553 13.5038 7.93351 13.2916C11.6394 12.821 13.4731 10.9258 13.8696 7.21738C14.0077 5.90792 14.0332 4.58313 14.1253 3.26599C14.123 2.95609 14.2248 2.65435 14.4143 2.40919C14.4731 3.51149 14.4885 4.61633 14.6036 5.71095C14.6882 6.83174 14.8644 7.94372 15.1304 9.03576C15.7647 11.3376 17.3427 12.7365 19.6829 13.1278C21.3402 13.3989 23.0307 13.4603 24.7084 13.6036C25.0614 13.6343 25.4194 13.6036 25.7749 13.6036C25.7749 13.6931 25.7928 13.7826 25.8005 13.8721C25.5575 13.9028 25.3171 13.9386 25.0793 13.9565Z" fill="white"/>
</g>
<defs>
<clipPath id="clip0_161_253">
<rect width="29" height="29" fill="white"/>
</clipPath>
</defs>
</svg>
