<svg width="29" height="29" viewBox="0 0 29 29" fill="none" xmlns="http://www.w3.org/2000/svg">
<g clip-path="url(#clip0_161_255)">
<path d="M22.5678 0.00244141H6.42967C4.72442 0.00244141 3.08899 0.679837 1.88319 1.88563C0.677396 3.09143 5.09098e-07 4.72683 5.09098e-07 6.43208V22.5702C-0.000335591 23.4147 0.165748 24.2509 0.48875 25.0311C0.811752 25.8114 1.28533 26.5203 1.88244 27.1174C2.47956 27.7146 3.18852 28.1881 3.96875 28.5111C4.74899 28.8341 5.58522 29.0002 6.42967 28.9999H22.5678C24.273 28.9999 25.9084 28.3225 27.1142 27.1167C28.32 25.9109 28.9974 24.2755 28.9974 22.5702V6.43208C28.9968 4.72704 28.3191 3.09203 27.1135 1.88638C25.9078 0.680733 24.2728 0.00311922 22.5678 0.00244141ZM14.3529 4.63924C15.6985 4.64466 16.987 5.18351 17.9358 6.13761C18.8847 7.09172 19.4164 8.38321 19.4143 9.72879C19.415 10.3974 19.2835 11.0595 19.0273 11.6771C18.7711 12.2947 18.3954 12.8555 17.9217 13.3273C17.4479 13.7992 16.8856 14.1727 16.267 14.4263C15.6484 14.68 14.9857 14.8089 14.3171 14.8055C12.9723 14.8014 11.684 14.2637 10.7354 13.3103C9.78688 12.3569 9.25558 11.066 9.2583 9.72111C9.25762 9.05237 9.38901 8.39007 9.64493 7.77223C9.90084 7.15439 10.2763 6.59315 10.7496 6.12076C11.223 5.64836 11.7849 5.27411 12.4033 5.01944C13.0216 4.76476 13.6842 4.63472 14.3529 4.63674V4.63924ZM16.5294 19.1175C17.4314 20.0212 18.3333 20.9249 19.2353 21.8285C19.39 21.9821 19.5088 22.168 19.5832 22.3728C19.6576 22.5777 19.6858 22.7965 19.6658 23.0135C19.6458 23.2305 19.578 23.4405 19.4673 23.6282C19.3566 23.816 19.2058 23.977 19.0256 24.0996C18.7546 24.2899 18.4268 24.3817 18.0964 24.3598C17.7661 24.338 17.4532 24.2037 17.2097 23.9794C16.5422 23.3375 15.8951 22.6751 15.2404 22.0203L14.4476 21.2275L14.3376 21.1252L14.2097 21.2454C13.3231 22.1337 12.4365 23.022 11.5499 23.9104C11.4181 24.0499 11.2596 24.1616 11.0839 24.239C10.9082 24.3163 10.7188 24.3576 10.5269 24.3605C10.3328 24.3659 10.1396 24.3331 9.95835 24.2637C9.77705 24.1944 9.61123 24.09 9.47035 23.9565C9.32947 23.823 9.21631 23.663 9.13735 23.4856C9.0584 23.3083 9.0152 23.1172 9.01023 22.9232C9.00332 22.7119 9.04151 22.5016 9.12221 22.3062C9.20291 22.1109 9.32429 21.9349 9.47828 21.7901C10.3632 20.9104 11.243 20.0255 12.1253 19.1457C12.1774 19.0997 12.233 19.0578 12.2916 19.0203L12.2685 18.9718L12.0921 18.918C11.1166 18.6743 10.186 18.2772 9.33504 17.7416C9.05473 17.5665 8.84102 17.3028 8.72793 16.9923C8.61485 16.6817 8.60891 16.3423 8.71101 16.028C8.81349 15.7164 9.01588 15.4472 9.28684 15.2623C9.55779 15.0773 9.88217 14.9869 10.2097 15.005C10.4829 15.0246 10.7467 15.1126 10.977 15.2608C11.8323 15.7928 12.8037 16.1096 13.8082 16.184C15.1953 16.306 16.5842 15.9701 17.7622 15.2275C18.0105 15.0725 18.298 14.9917 18.5908 14.9948C18.9481 15.0032 19.2904 15.1398 19.5552 15.3798C19.8201 15.6197 19.9898 15.9469 20.0333 16.3017C20.0726 16.5883 20.0251 16.8801 19.897 17.1395C19.7689 17.3989 19.5661 17.6139 19.3146 17.7569C18.4856 18.2783 17.5792 18.665 16.6292 18.9027L16.3939 18.9666L16.5294 19.1175Z" fill="white"/>
<path d="M14.3197 11.8389C14.8825 11.8423 15.4237 11.6223 15.8245 11.2272C16.2253 10.8321 16.4531 10.2943 16.4578 9.73147C16.4585 9.17307 16.2395 8.63677 15.848 8.23859C15.4565 7.8404 14.9241 7.61231 14.3658 7.60357C13.8005 7.59948 13.2567 7.81996 12.8539 8.21655C12.451 8.61313 12.2221 9.1534 12.2174 9.71867C12.22 10.2771 12.4418 10.8121 12.835 11.2087C13.2282 11.6052 13.7613 11.8315 14.3197 11.8389Z" fill="white"/>
</g>
<defs>
<clipPath id="clip0_161_255">
<rect width="29" height="29" fill="white"/>
</clipPath>
</defs>
</svg>
