<svg width="28" height="29" viewBox="0 0 28 29" fill="none" xmlns="http://www.w3.org/2000/svg">
<g clip-path="url(#clip0_161_250)">
<path d="M5.19302 14.381C6.58574 14.8669 7.97846 15.3503 9.36871 15.8413C9.41591 15.8609 9.46711 15.8678 9.51758 15.8615C9.56806 15.8553 9.61621 15.836 9.65763 15.8055C10.9417 14.9768 12.2274 14.1508 13.5148 13.3272C15.105 12.3042 16.6953 11.2855 18.2855 10.271C18.4673 10.1545 18.6562 10.0502 18.851 9.95897C18.8704 9.94491 18.8923 9.9351 18.9155 9.93018C18.9387 9.92526 18.9626 9.92533 18.9857 9.93037C19.0089 9.9354 19.0308 9.94531 19.0501 9.95947C19.0694 9.97362 19.0857 9.99172 19.098 10.0127C19.1249 10.0581 19.1375 10.1111 19.134 10.1643C19.1304 10.2175 19.111 10.2682 19.0782 10.3093C19.0279 10.3712 18.9743 10.4301 18.9177 10.4858L15.063 14.2096L11.7319 17.4295C11.6918 17.4703 11.665 17.5231 11.6553 17.5805C11.4907 18.583 11.336 19.5864 11.1911 20.5907C11.1615 20.7825 11.1368 20.9718 11.1096 21.161L11.1368 21.1763L13.7765 18.6827L13.8703 18.7518L16.4681 20.8183L18.172 22.1687C18.4189 22.3631 18.6312 22.2914 18.6831 22.0075C18.8708 20.9981 19.0601 19.9888 19.2511 18.9794C19.5046 17.6154 19.7614 16.2565 20.0215 14.9027L20.8364 10.5548L21.4364 7.36046C21.4364 7.32465 21.4364 7.28634 21.4562 7.21729L5.1239 14.3374L5.19302 14.381Z" fill="white"/>
<path d="M21.7896 5.08827e-07H6.2104C5.39495 -0.000335438 4.58745 0.165686 3.83398 0.488656C3.08051 0.811627 2.39585 1.28517 1.81913 1.88226C1.24241 2.47934 0.784904 3.18825 0.47277 3.9685C0.160637 4.74875 -6.45113e-08 5.58507 0 6.42964V22.5678C0.000654743 24.2733 0.655243 25.9086 1.81985 27.1143C2.98446 28.3201 4.56372 28.9974 6.2104 28.9974H21.7896C23.4363 28.9974 25.0155 28.3201 26.1801 27.1143C27.3447 25.9086 27.9993 24.2733 28 22.5678V6.42964C28 5.58507 27.8393 4.74875 27.5272 3.9685C27.2151 3.18825 26.7576 2.47934 26.1808 1.88226C25.6041 1.28517 24.9195 0.811627 24.166 0.488656C23.4125 0.165686 22.605 -0.000335438 21.7896 5.08827e-07ZM22.8267 8.1483C22.6563 9.08948 22.4736 10.0307 22.2958 10.9616L21.8291 13.4424C21.6661 14.2966 21.5056 15.1508 21.3352 16C21.1311 17.0878 20.9253 18.1756 20.7179 19.2634C20.5178 20.3299 20.3351 21.3989 20.1153 22.4578C20.0567 22.7501 19.9226 23.0206 19.7274 23.2404C19.5322 23.4601 19.2831 23.621 19.0066 23.7059C18.7658 23.7918 18.5109 23.8277 18.2567 23.8115C18.0025 23.7952 17.7538 23.7272 17.525 23.6112C17.4295 23.5568 17.34 23.4916 17.2583 23.4168L13.9321 20.7749L13.8407 20.7084L13.0752 21.4296C12.6159 21.8618 12.164 22.3069 11.6949 22.7289C11.5636 22.8451 11.4089 22.9296 11.2421 22.9761C11.0753 23.0225 10.9006 23.0299 10.7307 22.9975C10.5608 22.9652 10.4 22.894 10.2601 22.7891C10.1202 22.6842 10.0046 22.5483 9.92185 22.3913C9.73454 22.0079 9.58719 21.6049 9.48229 21.1892C9.08555 19.8542 8.6913 18.5192 8.29949 17.1841C8.29174 17.1535 8.27579 17.1257 8.25352 17.104C8.23125 17.0823 8.20355 17.0675 8.17355 17.0614C7.00555 16.6547 5.84 16.2532 4.67447 15.8414C4.23387 15.7077 3.85549 15.4122 3.61019 15.0102C3.44436 14.7381 3.38041 14.4125 3.43045 14.095C3.48049 13.7774 3.64106 13.4898 3.88182 13.2864C4.16434 13.0612 4.47934 12.8834 4.81524 12.7596L11.9467 9.64705L17.5028 7.23012C18.6107 6.7476 19.7211 6.26681 20.8339 5.78769C21.0387 5.68397 21.2624 5.62666 21.4902 5.61961C21.718 5.61255 21.9447 5.65593 22.155 5.7468C22.3986 5.84946 22.6058 6.02717 22.7484 6.25593C22.8911 6.48469 22.9624 6.75342 22.9526 7.02557C22.9439 7.40556 22.9017 7.78391 22.8267 8.15598V8.1483Z" fill="white"/>
</g>
<defs>
<clipPath id="clip0_161_250">
<rect width="28" height="29" fill="white"/>
</clipPath>
</defs>
</svg>
