<svg width="224" height="55" viewBox="0 0 224 55" fill="none" xmlns="http://www.w3.org/2000/svg">
<g clip-path="url(#clip0_7_65)">
<path d="M82.3067 18.7705H70.34V25.1278H80.8952V30.4597H70.34V41.7146H64.6945V13.3663H82.3067V18.7705Z" fill="black"/>
<path d="M90.2201 41.7146H84.6589V13.3663H90.2201V41.7146Z" fill="black"/>
<path d="M110.619 41.7146H105.046V38.8918C104.48 39.8317 103.691 40.6168 102.748 41.1768C101.804 41.7367 100.737 42.0542 99.6413 42.1006C98.7858 42.1502 97.93 42.0055 97.1383 41.6776C96.3465 41.3496 95.6393 40.8468 95.0694 40.2067C93.9137 38.7286 93.3349 36.8808 93.4409 35.0075V20.6886H99.0019V33.3549C98.9419 34.34 99.2138 35.3168 99.774 36.1294C100.035 36.4487 100.368 36.7015 100.745 36.8672C101.122 37.0329 101.534 37.1066 101.945 37.0824C102.372 37.1042 102.799 37.0298 103.194 36.8649C103.588 36.7 103.941 36.4486 104.225 36.1294C104.818 35.3305 105.108 34.3476 105.046 33.3549V20.6886H110.619V41.7146Z" fill="black"/>
<path d="M119.678 18.4569H113.876V13.3663H119.678V18.4569ZM119.521 41.7146H113.948V20.6886H119.521V41.7146Z" fill="black"/>
<path d="M141.404 41.7146H135.831V38.8074C135.245 39.7966 134.414 40.6188 133.42 41.1954C132.425 41.772 131.299 42.0837 130.149 42.1006C129.053 42.1061 127.969 41.8625 126.981 41.3882C125.992 40.9138 125.125 40.2211 124.443 39.3623C122.752 37.112 121.921 34.3306 122.103 31.5213V30.894C121.919 28.0844 122.74 25.3011 124.419 23.0409C125.103 22.1789 125.975 21.4842 126.968 21.0097C127.96 20.5352 129.048 20.2934 130.149 20.3026C131.272 20.3162 132.375 20.6008 133.364 21.1321C134.353 21.6635 135.199 22.4259 135.831 23.3545V13.3663H141.404V41.7146ZM135.915 31.4609V30.9905C135.982 29.4933 135.558 28.0152 134.709 26.7805C134.388 26.2925 133.951 25.8917 133.437 25.6139C132.924 25.336 132.349 25.1897 131.765 25.1881C131.183 25.1906 130.611 25.3374 130.099 25.6153C129.588 25.8932 129.153 26.2935 128.834 26.7805C127.985 28.0152 127.561 29.4933 127.628 30.9905V31.4609C127.563 32.9617 127.986 34.4431 128.834 35.683C129.156 36.1663 129.592 36.5631 130.103 36.8386C130.614 37.1142 131.185 37.26 131.765 37.2633C132.348 37.262 132.921 37.1171 133.435 36.8415C133.948 36.5658 134.386 36.168 134.709 35.683C135.557 34.4431 135.98 32.9617 135.915 31.4609Z" fill="black"/>
<path d="M155.566 32.2571H144.106V26.8528H155.602L155.566 32.2571Z" fill="black"/>
<path d="M175.47 41.7146H158.775V13.3663H164.42V36.2862H175.47V41.7146Z" fill="black"/>
<path d="M183.323 18.4569H177.521V13.3663H183.323V18.4569ZM183.166 41.7146H177.605V20.6886H183.166V41.7146Z" fill="black"/>
<path d="M203.722 41.7146H198.149V29.0483C198.219 28.0641 197.942 27.0864 197.365 26.2859C197.101 25.9632 196.764 25.7076 196.383 25.5399C196.001 25.3721 195.585 25.2971 195.169 25.3208C194.742 25.297 194.316 25.3717 193.923 25.539C193.529 25.7063 193.18 25.9619 192.901 26.2859C192.297 27.075 192.002 28.057 192.069 29.0483V41.7146H186.508V20.6886H192.069V23.5114C192.636 22.5705 193.428 21.785 194.373 21.225C195.318 20.6651 196.388 20.3481 197.485 20.3026C198.346 20.251 199.208 20.3946 200.006 20.7225C200.804 21.0504 201.517 21.5543 202.093 22.1965C203.247 23.6756 203.826 25.5227 203.722 27.3957V41.7146Z" fill="black"/>
<path d="M224 31.461C224.007 32.0773 223.978 32.6935 223.916 33.3066H211.37C211.869 36.1053 213.385 37.5046 215.918 37.5046C217.667 37.4647 219.336 36.7619 220.586 35.5383L223.095 38.916C222.178 39.9603 221.042 40.7901 219.768 41.3467C218.495 41.9033 217.114 42.173 215.725 42.1368C214.404 42.1724 213.09 41.9286 211.87 41.4213C210.65 40.9141 209.55 40.1549 208.644 39.1934C207.69 38.1523 206.951 36.9335 206.469 35.6068C205.987 34.28 205.771 32.8713 205.833 31.461V31.0749C205.725 28.2706 206.657 25.5252 208.451 23.3666C209.249 22.3934 210.257 21.6141 211.4 21.0875C212.543 20.5609 213.791 20.3008 215.049 20.3267C216.326 20.2595 217.599 20.5084 218.757 21.0514C219.914 21.5943 220.919 22.4144 221.684 23.439C223.309 25.7896 224.122 28.6061 224 31.461ZM218.62 29.5791C218.568 28.3501 218.184 27.1581 217.51 26.1291C217.235 25.7488 216.871 25.4406 216.451 25.2306C216.031 25.0206 215.567 24.915 215.097 24.9228C214.617 24.9133 214.142 25.0177 213.71 25.2274C213.278 25.437 212.902 25.746 212.612 26.1291C211.901 27.1601 211.484 28.3653 211.406 29.6153L218.62 29.5791Z" fill="black"/>
<path d="M-3.05176e-05 0.32605V54.984H54.6459V0.32605H-3.05176e-05ZM11.7012 49.4229H5.66965V26.7805H11.7012V49.4229ZM11.7012 14.3675V20.6645H5.66965V6.12841H15.4649C14.2875 7.15489 13.3427 8.42083 12.6936 9.84166C12.0446 11.2625 11.7062 12.8055 11.7012 14.3675ZM18.9391 49.4229V26.7805H26.1046V20.6645H18.8909V14.3675C18.9225 13.1868 19.4195 12.0665 20.2736 11.2508C21.1278 10.435 22.2698 9.99002 23.4507 10.0127H31.1229V40.1705C31.1287 42.0122 31.5913 43.8236 32.4692 45.4426C33.3471 47.0615 34.6129 48.4374 36.1532 49.4471L18.9391 49.4229ZM48.7832 44.5012H42.6672C42.0985 44.498 41.536 44.3829 41.0118 44.1623C40.4876 43.9417 40.0119 43.6201 39.612 43.2157C39.2121 42.8113 38.8958 42.3321 38.6811 41.8055C38.4664 41.2789 38.3576 40.7151 38.3607 40.1464V6.12841H48.7832V44.5012Z" fill="black"/>
</g>
<defs>
<clipPath id="clip0_7_65">
<rect width="224" height="54.658" fill="white" transform="translate(0 0.32605)"/>
</clipPath>
</defs>
</svg>
