<svg width="150" height="150" viewBox="0 0 150 150" fill="none" xmlns="http://www.w3.org/2000/svg">
<path d="M121.363 133.821C92.584 157.133 48.3033 155.67 20.7006 126.712C-7.88704 96.7127 -6.73748 49.2131 23.3582 20.666C30.5038 13.8547 38.9267 8.52457 48.1414 4.98261C57.3561 1.44065 67.1806 -0.243103 77.0489 0.0283424C86.9172 0.299788 96.6343 2.52107 105.64 6.56422C114.646 10.6074 122.763 16.3925 129.524 23.5863C156.813 52.505 155.579 95.4065 133.209 122.095L74.0954 62.7525L99.2105 37.6328C98.7645 37.6036 98.499 37.5691 98.2309 37.5691C91.8911 37.5691 85.5539 37.5532 79.2167 37.593C78.6669 37.6159 78.1427 37.8311 77.7353 38.201C70.8645 44.8344 64.0131 51.49 57.1812 58.1677C56.9529 58.388 56.7219 58.6057 56.337 58.9641V37.6381H37.5936V99.0781L62.6184 74.054L121.363 133.821ZM131.741 107.693C138.643 96.3171 142.758 79.9131 139.44 62.6702C136.904 49.5396 130.854 38.2461 121.432 28.6729L86.7831 62.9968L131.741 107.693ZM28.5245 121.283C49.9653 142.975 82.7928 145.848 106.203 132.574L62.5069 87.7687L28.5245 121.283ZM29.3661 27.9455L29.4325 28.211H65.6821V37.6886L65.9476 37.8134C66.1236 37.5532 66.3142 37.3033 66.5184 37.0647C69.0406 34.4099 71.5946 31.7843 74.0848 29.1003C74.3603 28.7847 74.7047 28.5367 75.0915 28.3755C75.4782 28.2144 75.8968 28.1445 76.3149 28.1711C90.7415 28.1977 105.166 28.2039 119.589 28.1897H120.582L120.633 27.9083C106.793 14.9848 90.4442 8.59466 71.4406 9.55038C55.137 10.3813 41.1724 16.79 29.3661 27.9455ZM28.0865 29.3738C2.84395 54.6156 3.59794 96.4313 28.0865 120.627V29.3738Z" fill="white"/>
</svg>
