<svg width="79" height="69" viewBox="0 0 79 69" fill="none" xmlns="http://www.w3.org/2000/svg">
<g clip-path="url(#clip0_161_30)">
<path d="M39.5174 49.3385C38.0418 49.3385 36.5678 49.3385 35.0922 49.3385C34.1636 49.3385 33.339 48.7025 33.3208 48.0059C33.3027 47.3093 34.147 46.5734 35.1054 46.5701C38.0797 46.557 41.0541 46.5161 44.0284 46.5914C45.0678 46.6175 45.7122 47.1653 45.6808 48.0042C45.6527 48.7923 45.0199 49.3287 44.0152 49.3368C42.5148 49.3483 41.0161 49.3385 39.5174 49.3385Z" fill="#1FBCDE"/>
<path d="M49.1624 16.8212C49.4238 16.9295 49.6773 17.0557 49.9209 17.1988C50.4728 17.5749 51.0247 17.9576 51.5403 18.3795C51.9435 18.7065 52.2938 18.7245 52.7928 18.5511C53.5083 18.3026 53.9132 17.9658 53.8983 17.1531C53.8884 16.5808 54.0453 16.0084 54.1428 15.4329C54.175 15.1606 54.3063 14.9093 54.5122 14.726C54.7181 14.5427 54.9846 14.44 55.2615 14.4371C56.5184 14.4131 57.7765 14.4131 59.0356 14.4371C59.6387 14.4485 59.9956 14.8099 60.103 15.3937C60.2518 16.19 60.4087 16.9847 60.5178 17.7859C60.5723 18.1784 60.7706 18.3255 61.1077 18.5332C62.0661 19.1186 62.7601 18.7605 63.474 18.1244C63.7951 17.8573 64.1329 17.6105 64.4852 17.3853C65.0338 17.0075 65.556 17.0125 66.0253 17.4589C66.9011 18.2928 67.7614 19.1431 68.6063 20.0098C69.0839 20.5003 69.1021 21.017 68.6939 21.5845C68.261 22.196 67.7834 22.7781 67.3852 23.4109C67.2543 23.6662 67.2124 23.9571 67.2662 24.2384C67.4117 25.1312 67.9272 25.5726 68.8906 25.5612C69.4491 25.5612 70.0125 25.6986 70.5678 25.8114C71.0965 25.9177 71.3939 26.2054 71.3774 26.8088C71.3427 27.9273 71.3775 29.0491 71.3675 30.1692C71.3675 31.0358 71.0718 31.3613 70.2109 31.5002C69.4656 31.6196 68.7154 31.7095 67.9751 31.8501C67.8099 31.8796 67.6843 32.066 67.5472 32.1772C67.5191 32.2017 67.524 32.259 67.5009 32.2917C66.8399 33.1992 67.1704 33.9514 67.8545 34.6758C68.141 35.0064 68.4028 35.3573 68.6378 35.7255C68.9947 36.239 68.9682 36.7606 68.5436 37.1972C67.7019 38.0693 66.8432 38.9218 65.9674 39.7547C65.4717 40.2289 64.938 40.2452 64.3712 39.856C63.7532 39.4292 63.165 38.955 62.5255 38.5609C62.2683 38.4292 61.9743 38.3856 61.6894 38.4367C60.7872 38.5741 60.3327 39.0907 60.3459 40.0359C60.3459 40.5264 60.2187 41.017 60.1295 41.5075C59.994 42.2516 59.609 42.5868 58.8357 42.5982C57.7043 42.6167 56.5724 42.6195 55.4399 42.6064C54.6137 42.6064 54.2519 42.2794 54.1329 41.4765C54.0734 41.0873 54.0321 40.6948 53.9677 40.3057C53.7413 38.852 53.7429 38.8439 52.3582 38.3713C52.2629 38.3545 52.1651 38.3566 52.0706 38.3776C51.9761 38.3987 51.8868 38.4383 51.808 38.4939C51.147 38.9371 50.5191 39.4211 49.8647 39.8708C49.2104 40.3204 48.8188 40.2681 48.2602 39.7171C47.4886 38.9551 46.7119 38.198 45.9469 37.4278C45.271 36.7525 45.2281 36.2831 45.7816 35.5129C46.1567 34.988 46.55 34.4763 46.9383 33.953C47.4985 33.1845 46.9631 31.9205 46.0096 31.7668C45.3487 31.6605 44.6877 31.5853 44.0268 31.4708C43.2617 31.3367 42.9296 30.9524 42.9246 30.2002C42.9169 29.0393 42.9169 27.8772 42.9246 26.7141C42.9246 26.0093 43.1973 25.6855 43.8996 25.5596C44.6398 25.4255 45.3867 25.3143 46.1369 25.2326C46.5037 25.195 46.6326 25.0151 46.8111 24.7175C47.3531 23.8018 47.1416 23.0708 46.4409 22.3579C46.1515 22.0296 45.8911 21.6773 45.6627 21.3048C45.2975 20.7701 45.3189 20.2321 45.7634 19.7759C46.6111 18.9125 47.4687 18.059 48.3511 17.2316C48.5494 17.055 48.87 16.97 49.1624 16.8212ZM45.0876 29.6181C45.9138 29.7555 46.7235 29.9141 47.5332 30.0105C48.1644 30.0874 48.4949 30.4063 48.6601 30.9999C48.7989 31.4904 48.9328 32.0382 49.2302 32.4421C49.9804 33.4624 49.7689 34.3225 48.9642 35.1614C48.8966 35.2409 48.8347 35.3251 48.7791 35.4132C47.9215 36.5987 47.9314 36.5872 49.0121 37.6011C49.2914 37.8627 49.4715 37.8529 49.7507 37.6273C50.2365 37.2315 50.7587 36.8816 51.2511 36.4957C51.7435 36.1098 52.231 36.1245 52.7763 36.3714C53.4604 36.6821 54.1577 36.9731 54.8633 37.2299C55.3871 37.4196 55.7142 37.7368 55.8051 38.2846C55.8613 38.6116 55.9291 38.9387 55.9803 39.2657C56.2496 41.0039 56.248 41.0039 58.1417 40.7276C58.3069 39.9345 58.5134 39.13 58.6374 38.3141C58.7283 37.678 59.0786 37.3967 59.6586 37.2103C60.3417 37.0098 61.0006 36.7356 61.6233 36.3927C62.2611 36.0215 62.7585 36.1229 63.2889 36.5317C63.8805 36.9896 64.4886 37.4294 65.1231 37.902C65.4786 37.5639 65.814 37.2057 66.1277 36.8293C66.1817 36.7363 66.2129 36.632 66.2186 36.5249C66.2243 36.4178 66.2045 36.3109 66.1608 36.2128C65.8088 35.6503 65.4056 35.1156 65.0041 34.5891C64.6026 34.0625 64.6026 33.5475 64.895 32.9654C65.1991 32.3746 65.456 31.7611 65.6634 31.1307C65.8799 30.4553 66.2864 30.0874 66.9936 29.986C67.7587 29.883 68.5188 29.7408 69.2987 29.6132V27.7278C68.451 27.5888 67.6298 27.427 66.7986 27.3321C66.2137 27.2634 65.9179 26.9707 65.7345 26.4376C65.5128 25.7248 65.2269 25.0331 64.8802 24.3708C64.5497 23.7903 64.5894 23.3292 64.9645 22.8239C65.4453 22.1699 65.9113 21.5158 66.402 20.8307L64.9975 19.4734C64.4043 19.9116 63.7879 20.3384 63.2046 20.8045C62.6577 21.2411 62.1273 21.2394 61.5159 20.9369C60.8958 20.6362 60.2566 20.3757 59.6024 20.1569C58.9794 19.946 58.6109 19.5797 58.5266 18.9223C58.4209 18.1472 58.2738 17.3788 58.14 16.5759C57.6443 16.5759 57.2031 16.5971 56.7652 16.5759C56.3752 16.5514 56.2001 16.692 56.1505 17.0811C56.0629 17.7614 55.9043 18.4318 55.82 19.112C55.7572 19.6696 55.4466 19.9296 54.9409 20.1128C54.2029 20.3503 53.4846 20.6444 52.7928 20.9925C52.226 21.2966 51.77 21.2574 51.2908 20.8878C51.076 20.7243 50.8529 20.5608 50.6298 20.3973C49.1955 19.3295 49.1955 19.3295 48.0504 20.7619C48.0301 20.7997 48.0146 20.8398 48.0041 20.8813C48.4552 21.5075 48.9212 22.1699 49.407 22.8174C49.7738 23.3079 49.7838 23.7789 49.5078 24.3234C49.1852 24.952 48.9091 25.6029 48.6816 26.2709C48.4734 26.8939 48.1033 27.252 47.4473 27.3485C46.664 27.4646 45.8841 27.6068 45.0794 27.7409L45.0876 29.6181Z" fill="#1FBCDE"/>
<path d="M63.4211 28.6845C63.4311 32.1298 60.6253 34.9538 57.1866 34.9587C53.8058 34.9587 50.9636 32.1266 50.957 28.745C50.957 25.2146 53.7033 22.4053 57.1717 22.4004C60.5641 22.3906 63.4211 25.2604 63.4211 28.6845ZM57.2097 24.5622C54.9178 24.5524 53.1283 26.3331 53.1167 28.6354C53.1051 30.9836 54.8749 32.8019 57.1816 32.8133C59.4438 32.8248 61.2168 31.0228 61.2334 28.6943C61.2499 26.3658 59.495 24.5736 57.213 24.5638L57.2097 24.5622Z" fill="#1FBCDE"/>
<path d="M78.9836 13.698C78.9836 11.3302 78.9936 8.95596 78.9836 6.59475C78.9721 4.92686 78.2582 3.46826 77.0007 2.25495C75.3979 0.721149 73.3654 -0.00488087 70.9678 2.46893e-05C60.4926 0.0174667 50.018 0.0201601 39.544 0.00816869C29.1173 0.00816869 18.6911 0.00816869 8.26551 0.00816869C7.09275 -0.0195725 5.92441 0.159874 4.8153 0.538008C3.29133 1.05476 1.97911 2.049 1.07753 3.37012C0.362454 4.44382 -0.0079009 5.70634 0.0150432 6.99205C0.0381769 20.394 0.0420438 33.7961 0.0266213 47.1981C0.0266213 48.3607 0.122434 49.4775 0.659466 50.5894C1.35136 52.025 2.5228 53.1802 3.97586 53.8598C5.25388 54.4643 6.65584 54.7682 8.07219 54.7477C15.6931 54.72 23.3123 54.7477 30.9332 54.7248C31.5678 54.7248 31.7694 54.8752 31.7594 55.4378C31.7198 57.0435 31.7231 58.6509 31.7594 60.2567C31.771 60.7849 31.5826 60.9418 30.9795 60.9385C29.4923 60.9255 28.0432 61.0285 26.6585 61.712C24.0146 63.0103 22.6811 64.9382 22.5605 67.5349C22.5456 67.8619 22.8166 68.2168 23.0166 68.5291C23.3801 69.0965 24.0394 69.0033 24.6343 69.0033C34.5278 69.0033 44.4219 69.0033 54.3165 69.0033C54.5329 69.0033 54.7527 69.0033 54.9692 68.9934C55.8863 68.9395 56.572 68.3917 56.4729 67.6035C56.3651 66.7063 56.1396 65.8268 55.802 64.9872C55.032 63.1231 53.3961 61.9409 51.3289 61.3065C50.3078 60.9941 49.1461 60.9908 48.0439 60.9467C47.4325 60.9205 47.2657 60.7652 47.2772 60.2501C47.3103 58.6853 47.2888 57.122 47.2904 55.5571C47.2904 54.7395 47.2904 54.7395 48.2571 54.7395C55.6368 54.7395 63.0148 54.7265 70.3994 54.751C71.697 54.773 72.9895 54.5858 74.2263 54.1967C75.7519 53.7022 77.0623 52.7093 77.9426 51.3808C78.7539 50.1872 79.0299 48.8594 79.0249 47.4564C78.9776 36.1965 78.9638 24.9437 78.9836 13.698ZM48.5694 63.5712C50.3061 63.5712 51.6115 64.2253 52.6194 65.4043C52.8095 65.6266 52.8921 65.921 53.0838 66.3003H25.9992C26.1545 65.4304 26.7791 64.8925 27.4599 64.4117C28.4712 63.6988 29.6659 63.563 30.93 63.5679C36.8103 63.593 42.6902 63.5952 48.5694 63.5745V63.5712ZM44.1211 60.3744C44.1211 60.7913 43.9559 60.9222 43.4932 60.9206C40.8361 60.9053 38.1796 60.9053 35.5236 60.9206C35.0031 60.9206 34.8627 60.757 34.8759 60.327C34.899 58.6607 34.9023 56.9929 34.8759 55.3266C34.8759 54.8491 35.0411 54.7036 35.5815 54.7134C36.9034 54.7412 38.2369 54.7232 39.5654 54.7232C40.846 54.7232 42.1267 54.7395 43.4057 54.715C43.9179 54.7052 44.136 54.8098 44.1261 55.3086C44.0881 57.001 44.0996 58.6901 44.1211 60.3776V60.3744ZM75.9184 47.8652C75.8896 48.857 75.4885 49.8026 74.7932 50.5175C73.8777 51.4774 72.7425 51.9254 71.3528 51.9679C71.1595 51.9679 70.9662 51.9679 70.7728 51.9679C49.9448 51.9679 29.1162 51.9706 8.28701 51.9761C6.57677 51.9761 5.04165 51.6589 4.07994 50.354C3.58091 49.6904 3.24949 48.9184 3.11331 48.1023C2.94807 46.9577 3.10172 45.7804 3.05215 44.6194C3.02736 44.052 3.24218 43.9015 3.87836 43.9048C7.57975 43.9261 11.2812 43.913 14.9826 43.913H74.8559C75.9382 43.913 75.9383 43.9129 75.9383 44.8842C75.9383 45.8555 75.9663 46.8775 75.9184 47.8685V47.8652ZM75.0509 41.2721C73.7521 41.143 5.16892 41.1266 3.90978 41.2721C3.84699 41.2721 3.44542 41.3408 3.21574 41.1086C3.09511 40.9876 3.0505 40.7963 3.0505 40.5134C3.07363 34.4894 3.06373 28.4637 3.06373 22.4397C3.06373 17.3445 3.06373 12.2492 3.06373 7.15397C3.06373 4.43138 5.07472 2.67353 8.15977 2.6719C29.0903 2.66426 50.0169 2.66426 70.9397 2.6719C73.886 2.6719 75.9151 4.39705 75.9201 6.99373C75.9399 18.1555 75.9201 29.3173 75.7796 41.089C75.7763 41.4389 75.1186 41.2754 75.0509 41.2754V41.2721Z" fill="#1FBCDE"/>
<path d="M40.0065 24.5246C40.0059 24.1864 39.9232 23.8533 39.7653 23.5533C38.5469 21.3196 37.3109 19.0935 36.0572 16.8751C35.5351 15.948 34.9816 15.0356 34.4363 14.1182C34.3583 13.9802 34.2634 13.8522 34.1537 13.7372C33.2316 12.7937 32.3476 13.003 31.7098 13.9547C30.9315 15.1206 30.3581 16.3895 29.6757 17.6061C28.8627 19.0565 28.0233 20.5004 27.197 21.9426C26.8583 22.528 26.465 23.0873 26.156 23.689C26.0387 23.9163 26.0668 24.209 26.0668 24.4706C26.0668 30.0946 26.0668 35.7169 26.0668 41.3376V41.9492H28.9437C28.7784 41.6221 28.9089 41.0122 28.9089 40.5593C28.9089 35.7207 28.9089 30.8822 28.8908 26.0437C28.8908 25.4632 29.0692 25.3046 29.7285 25.316C31.6024 25.3487 31.604 25.316 31.604 26.9512V33.8402C31.604 36.4205 31.5891 39.0009 31.6139 41.5812C31.6193 41.7065 31.6043 41.8319 31.5693 41.9524H34.4627C34.4627 41.8314 34.4461 41.7088 34.4445 41.5878C34.4445 36.383 34.4445 31.1798 34.4313 25.975C34.4313 25.4845 34.5469 25.2833 35.1468 25.321C35.7879 25.3667 36.4373 25.3324 37.1214 25.3324V41.9475H40.0545C40.0177 41.8222 40.0021 41.6919 40.0082 41.5616C40.0214 35.8831 40.0208 30.2041 40.0065 24.5246ZM29.7517 22.7978L33.0268 17.1319L36.3002 22.7978H29.7517Z" fill="#1FBCDE"/>
<path d="M22.9271 8.09251C22.9271 6.67481 22.086 5.84739 20.6551 5.87519C16.9074 5.94714 13.1565 5.89811 9.40715 5.90138C8.08522 5.90138 7.37302 6.59146 7.37137 7.89307C7.37137 18.8281 7.37137 29.7621 7.37137 40.6949C7.37872 40.9078 7.37041 41.1209 7.34656 41.3326H10.5869V9.02133C10.8133 8.99844 11.0215 8.96081 11.2281 8.96081C13.8157 8.96081 16.4034 8.96901 18.9944 8.94612C19.5479 8.94612 19.8008 9.07527 19.7512 9.65249C19.7132 10.1887 19.7132 10.7269 19.7512 11.2632C19.776 11.7292 19.5678 11.8453 19.1117 11.8731C18.5486 11.8878 17.9912 11.9887 17.4593 12.1723C16.6893 12.4748 16.6744 13.1535 16.8099 13.8435C16.9454 14.5336 17.5684 14.6791 18.1219 14.89C18.2165 14.9091 18.3134 14.914 18.4095 14.9047C19.7496 14.9456 19.7495 14.9456 19.7495 16.2129C19.7495 17.0305 19.7165 17.8481 19.7611 18.6657C19.7925 19.238 19.5645 19.4244 19.006 19.3639C18.7164 19.3353 18.4247 19.3353 18.1351 19.3639C17.2313 19.444 16.7323 19.9787 16.7422 20.8356C16.7521 21.6924 17.2792 22.2254 18.1649 22.2843C18.6606 22.317 19.1662 22.2843 19.7396 22.2843C19.7396 23.702 19.7545 25.0265 19.7132 26.351C19.7132 26.4753 19.3711 26.647 19.1629 26.6977C18.6375 26.8269 18.0674 26.8219 17.57 27.01C16.8331 27.2896 16.6414 27.7769 16.7802 28.5962C16.8777 29.1701 17.4411 29.6672 18.074 29.7408C18.1219 29.7408 18.1715 29.7408 18.2194 29.7408C19.7462 29.8356 19.7462 29.8356 19.7462 31.358C19.7462 32.5484 19.7049 33.7421 19.7611 34.9309C19.7925 35.603 19.5347 35.8106 18.8903 35.7321C18.6491 35.7084 18.4061 35.7084 18.1649 35.7321C17.2495 35.8024 16.7471 36.3159 16.7438 37.1711C16.7438 37.9887 17.2825 38.561 18.1401 38.6542C18.188 38.6542 18.2376 38.6542 18.2855 38.6542C19.7479 38.7311 19.7479 38.731 19.7479 40.1863C19.7479 40.7423 19.7479 41.0873 19.6653 41.3032H22.9569C22.9075 41.1383 22.8863 40.9665 22.8941 40.7947C22.909 29.9141 22.8792 19.0041 22.9271 8.09251Z" fill="#1FBCDE"/>
</g>
<defs>
<clipPath id="clip0_161_30">
<rect width="79" height="69" fill="white"/>
</clipPath>
</defs>
</svg>
