<svg width="78" height="69" viewBox="0 0 78 69" fill="none" xmlns="http://www.w3.org/2000/svg">
<g clip-path="url(#clip0_161_27)">
<path d="M78.0001 9.99334C77.8288 10.9085 77.4494 11.7724 76.8911 12.5182C75.2714 14.5896 72.4682 15.3192 70.0943 14.1842C68.9209 13.6112 67.9833 12.6491 67.4419 11.4625C67.2645 11.0903 67.0673 10.948 66.6396 10.9529C64.4431 10.9794 62.2466 10.9646 60.0484 10.9646H59.561C59.561 10.9977 59.5511 11.0308 59.5445 11.0638C60.3402 11.5751 61.1442 12.0731 61.9283 12.6009C67.9227 16.6396 72.3008 21.9869 74.9316 28.7208C76.4445 32.5277 77.2641 36.5736 77.3519 40.6681C77.3552 41.0407 77.3169 41.4125 77.2375 41.7766C77.0452 42.6899 76.3192 43.2376 75.3809 43.2177C74.5686 43.1995 73.9254 42.637 73.806 41.7204C73.6203 40.3041 73.5176 38.8779 73.3452 37.4583C72.8408 33.2487 71.4426 29.1948 69.2439 25.5673C65.7627 19.793 60.9237 15.5608 54.7006 12.9301C52.6587 12.0346 50.5114 11.4008 48.31 11.044C48.31 11.5933 48.3199 12.1194 48.31 12.6439C48.2751 14.0899 48.2304 15.5343 48.1923 16.9804C48.1773 17.5694 47.4082 18.3619 46.8263 18.3619C41.9492 18.3718 37.0727 18.3779 32.1967 18.3801C31.8403 18.3801 31.4822 18.3421 31.1258 18.3123C30.4312 18.256 30.0532 17.9814 29.8875 17.3196C29.7762 16.851 29.7102 16.3728 29.6902 15.8917C29.6338 14.6342 29.6073 13.3735 29.5742 12.1161C29.5742 11.7769 29.5742 11.4377 29.5742 10.9695C28.2596 11.3004 27.0229 11.5453 25.8393 11.9391C20.6655 13.6614 16.1432 16.4344 12.4298 20.4515C9.22717 23.915 6.87882 28.0768 5.57174 32.6056C4.81084 35.1834 4.44779 37.8223 4.24555 40.4927C4.21257 40.942 4.14945 41.3887 4.05658 41.8296C3.86263 42.7213 3.2277 43.2425 2.38889 43.2343C1.51029 43.226 0.686391 42.6221 0.610135 41.7585C0.545504 40.8145 0.553801 39.8669 0.634985 38.9242C0.795618 36.5674 1.20119 34.2336 1.84514 31.9604C3.15943 27.2764 5.45832 22.9255 8.58882 19.1974C11.2611 15.9992 14.4506 13.4165 18.0164 11.2789C18.1092 11.2243 18.1987 11.1598 18.2866 11.0986C18.2949 11.0986 18.2866 11.0721 18.2966 11.0159C18.1673 11.0043 18.0379 10.9827 17.9086 10.9827C15.7121 10.9827 13.5156 10.9828 11.3191 10.9745C11.1779 10.9605 11.036 10.9939 10.9159 11.0694C10.7958 11.1449 10.7044 11.2582 10.656 11.3914C9.60833 13.4513 7.96883 14.722 5.60489 14.712C3.28405 14.7021 1.58157 13.5439 0.528908 11.4857C0.293509 11.0274 0.197335 10.493 0.0481387 9.99665C-0.0186774 9.36747 0.0126487 8.73174 0.140982 8.11213C0.333633 7.04398 0.841633 6.05769 1.5998 5.27966C2.20492 4.68581 2.94395 4.24548 3.75486 3.99571C4.74009 3.67353 5.79221 3.61195 6.80841 3.81701C7.20621 3.87141 7.5932 3.98699 7.95559 4.15955C9.129 4.72894 10.0732 5.68005 10.6328 6.85638C10.6881 7.00593 10.7919 7.13275 10.9276 7.21669C11.0634 7.30063 11.2234 7.33684 11.3821 7.31961C17.287 7.30417 23.1913 7.30034 29.0951 7.30806C29.2608 7.30806 29.4266 7.29315 29.6189 7.28488C29.6189 6.93743 29.6189 6.64459 29.6189 6.35009C29.6438 4.81139 29.6289 3.27101 29.7118 1.73562C29.7449 1.13999 29.8444 0.742923 30.166 0.428565C30.597 0.00831713 31.2203 -0.00654124 31.5121 0.0066949H46.6207C46.9818 -0.0092008 47.3361 0.108649 47.6154 0.337598C47.8688 0.575489 48.038 0.888968 48.0978 1.23102C48.153 1.441 48.1864 1.65612 48.1972 1.87296C48.2337 3.50266 48.2569 5.13406 48.2851 6.76542C48.2851 6.93087 48.2851 7.09632 48.2851 7.30313H48.8935C54.6558 7.30313 60.4164 7.28653 66.1787 7.32293C66.933 7.32293 67.2944 7.09629 67.679 6.44606C68.5443 4.98016 69.7661 3.89477 71.5879 3.76903C72.1786 3.7318 72.771 3.7318 73.3617 3.76903C73.766 3.77197 74.1667 3.84594 74.5454 3.98747C75.7738 4.5285 76.78 5.35736 77.3817 6.57508C77.6636 7.1492 77.8078 7.79115 78.015 8.39505L78.0001 9.99334ZM44.5486 14.722V3.69624H33.4748V14.722H44.5486ZM74.2751 9.13134C74.2776 8.89803 74.2334 8.66654 74.1451 8.45047C74.0569 8.2344 73.9264 8.03806 73.7613 7.87292C73.5961 7.70778 73.3996 7.57717 73.1833 7.4887C72.9669 7.40023 72.7351 7.35567 72.5014 7.35767C72.0225 7.35362 71.5613 7.53778 71.2173 7.87026C70.8734 8.20273 70.6742 8.65688 70.6629 9.13466C70.6581 9.37192 70.7007 9.60776 70.7883 9.82837C70.876 10.049 71.0068 10.2499 71.1733 10.4194C71.3397 10.5889 71.5383 10.7235 71.7576 10.8154C71.9768 10.9073 72.2122 10.9547 72.45 10.9546C72.6913 10.9601 72.9312 10.9166 73.1552 10.8269C73.3792 10.7372 73.5827 10.603 73.7533 10.4326C73.9239 10.2622 74.0581 10.059 74.1478 9.83532C74.2375 9.61166 74.2808 9.37219 74.2751 9.13134ZM3.75155 9.13134C3.75152 9.37259 3.79954 9.6114 3.89283 9.83395C3.98613 10.0565 4.12282 10.2584 4.29497 10.4277C4.46711 10.5971 4.6713 10.7305 4.89561 10.8204C5.11992 10.9103 5.35988 10.9548 5.60157 10.9513C6.59621 10.9513 7.29744 10.2266 7.30075 9.19088C7.30075 8.07408 6.60121 7.3395 5.53859 7.34942C5.06784 7.35872 4.61895 7.54943 4.28586 7.88157C3.95277 8.2137 3.7613 8.66152 3.75155 9.13134Z" fill="#1FBCDE"/>
<path d="M23.52 69L21.7546 68.8925C20.8179 68.8346 20.1598 68.2836 20.0554 67.4712C19.9194 66.3958 20.2991 65.7058 21.3385 65.4858C22.1806 65.3005 23.0625 65.2972 23.9278 65.2244C24.1715 65.2045 24.4169 65.2244 24.7252 65.2244C24.3588 63.7717 24.0041 62.4117 23.6709 61.0352C22.4856 56.1791 21.3136 51.3215 20.1217 46.4754C20.0172 46.0518 20.1946 45.7491 20.3902 45.4364C21.5026 43.6561 22.6 41.8676 23.7455 40.1088C26.6797 35.6008 29.6271 31.1016 32.5879 26.6113C34.1395 24.2635 35.7459 21.9522 37.3373 19.6326C37.896 18.8185 39.2387 18.7887 39.814 19.6077C41.1667 21.5253 42.5078 23.4545 43.8058 25.4101C46.393 29.3082 48.9619 33.2188 51.5126 37.1422C53.3362 39.9549 55.0917 42.8239 56.887 45.6614C56.9912 45.8239 57.0586 46.0072 57.0843 46.1984C57.1101 46.3896 57.0937 46.5841 57.0362 46.7683C55.8261 51.6656 54.6198 56.5636 53.4174 61.462C53.1472 62.5623 52.8687 63.6609 52.5603 64.7512C52.4608 65.1003 52.5603 65.1996 52.8819 65.2178C53.7208 65.2592 54.5596 65.3072 55.3951 65.3733C55.6105 65.3999 55.8213 65.4556 56.0217 65.5388C56.8821 65.8515 57.2434 66.4951 57.1108 67.4564C57.0668 67.8385 56.8881 68.1927 56.6066 68.4554C56.325 68.7182 55.9591 68.8725 55.5741 68.8908C54.9243 68.9438 54.2728 68.9719 53.6213 69.0116L23.52 69ZM40.5948 27.3376L40.4605 27.3657C40.4605 27.7148 40.4605 28.064 40.4605 28.4131C40.4522 36.0238 40.4605 43.6495 40.414 51.2669C40.414 52.0941 40.6528 52.5127 41.3789 52.9048C43.9848 54.3128 44.9364 57.8006 43.4411 60.3502C42.3138 62.2694 40.6047 63.0917 38.3634 63.1628C35.8918 63.2489 33.0587 60.4015 33.0935 58.2076C33.1167 56.434 33.3819 54.7861 34.8208 53.575C35.3083 53.1889 35.8299 52.8478 36.3791 52.5558C36.5091 52.4942 36.6165 52.3937 36.6864 52.2682C36.7562 52.1427 36.785 51.9985 36.7687 51.8559C36.7422 43.848 36.7217 35.8412 36.7074 27.8356V27.3392C36.5359 27.4334 36.3928 27.5717 36.2929 27.7397C35.1336 29.4902 33.9732 31.2406 32.8117 32.9911C29.8985 37.4197 26.993 41.8533 24.0953 46.2918C23.9751 46.4969 23.9361 46.7394 23.9859 46.9718C25.0849 51.4158 26.2106 55.8532 27.3113 60.2973C27.7108 61.9054 28.0589 63.5236 28.4452 65.2079C28.4816 65.2079 28.6325 65.2211 28.785 65.2211C34.5639 65.2133 40.3428 65.2024 46.1217 65.188C46.8842 65.188 47.6484 65.1582 48.4093 65.1053C48.4986 65.0926 48.5836 65.0588 48.6571 65.0067C48.7307 64.9546 48.7906 64.8858 48.8321 64.8058C49.4952 62.0759 50.1168 59.336 50.7899 56.6093C51.569 53.4459 52.3962 50.2924 53.1836 47.1306C53.258 46.8736 53.2362 46.5984 53.1223 46.3563C49.4079 40.6703 45.6796 34.9898 41.9375 29.3148C41.4982 28.6546 41.039 28.0011 40.5881 27.331L40.5948 27.3376ZM36.782 57.6418C36.782 58.4591 37.3622 59.1441 38.1595 59.4071C38.8027 59.6189 39.567 59.3095 40.0693 58.6692C40.5716 58.0289 40.4455 57.4167 40.1637 56.7483C39.9018 56.1262 39.3979 56.0451 38.8375 56.0484C38.6204 56.0484 38.4016 56.0484 38.1861 56.0584C37.3721 56.1113 37.1417 56.2917 36.9046 57.0809C36.8487 57.2651 36.8033 57.4524 36.7687 57.6418H36.782Z" fill="#1FBCDE"/>
</g>
<defs>
<clipPath id="clip0_161_27">
<rect width="78" height="69" fill="white"/>
</clipPath>
</defs>
</svg>
