<svg width="81" height="71" viewBox="0 0 81 71" fill="none" xmlns="http://www.w3.org/2000/svg">
<path d="M56.6776 5.27128L5.27741 5.00968V59.964C5.72815 59.964 6.17049 59.9594 6.61285 59.964C12.5328 60.0403 18.4527 60.1326 24.3734 60.173C25.1834 60.1783 25.445 60.4346 25.4252 61.2095C25.3886 62.6113 25.4145 64.0154 25.4145 65.5278H24.5512C18.1782 65.5278 11.8057 65.5278 5.43374 65.5278C2.25564 65.5278 0.0102962 63.3236 0.00800817 60.1326C-0.00266939 41.8378 -0.00266939 23.5436 0.00800817 5.24993C0.00800817 2.27546 2.29607 0.00724549 5.26061 0.00572012C22.4128 -0.00190671 39.5653 -0.00190671 56.718 0.00572012C59.5781 0.00572012 61.4795 1.72938 61.7853 4.5536C61.8424 5.108 61.8702 5.66502 61.8685 6.22235C61.8735 12.5409 61.8735 18.8602 61.8685 25.1803V26.0956H56.6753L56.6776 5.27128Z" fill="#595959"/>
<path d="M74.0227 42.092C74.0501 44.2939 73.832 46.058 73.1326 47.7161C72.8497 48.3872 72.9717 48.9272 73.2943 49.5183C74.934 52.5182 76.5642 55.5252 78.1846 58.5393C78.9282 59.9121 79.71 61.2743 80.372 62.689C80.565 63.1001 80.6008 63.8117 80.3613 64.1381C80.1218 64.4646 79.424 64.6865 78.9885 64.611C77.1367 64.2914 75.2971 63.8819 73.4735 63.4235C72.8184 63.2588 72.5835 63.4426 72.3737 64.026C71.7552 65.7459 71.0726 67.4428 70.4403 69.1581C70.2054 69.7957 69.8493 70.1946 69.1209 70.206C68.4299 70.216 67.9769 69.9147 67.6543 69.3168C65.6782 65.6833 63.6677 62.0713 61.7236 58.4173C61.2996 57.6203 60.7436 57.502 59.9184 57.3388C58.4418 57.0505 58.0048 57.8841 57.4641 58.9107C55.6474 62.3588 53.7704 65.7749 51.9323 69.2069C51.6333 69.7667 51.2497 70.1931 50.5908 70.1549C49.8975 70.1153 49.4055 69.7057 49.1676 69.0521C48.5323 67.3101 47.8901 65.5697 47.3059 63.8102C47.1137 63.2298 46.8796 63.0788 46.2801 63.2405C44.7967 63.6401 43.2957 63.9726 41.7993 64.3219C41.4393 64.4066 41.0702 64.5019 40.7049 64.5042C39.2642 64.5118 38.5998 63.3838 39.2977 62.1239C41.598 57.9718 43.8913 53.8152 46.2252 49.6823C46.6286 48.9676 46.6874 48.3743 46.348 47.61C45.1467 44.9048 45.3397 42.0966 46.0627 39.3387C48.0724 31.6692 55.8121 26.997 63.2765 29.0547C68.8662 30.5946 72.4569 34.2631 73.816 39.9657C74.0074 40.7833 73.9822 41.6527 74.0227 42.092ZM59.929 51.7484C64.9589 51.7346 68.812 47.9555 68.7762 43.0667C68.7426 37.8805 64.9627 33.9382 60.0396 33.9534C54.7352 33.9702 50.9744 37.7425 50.9759 43.0469C50.982 47.9365 54.9152 51.7613 59.929 51.7484ZM69.1758 62.2688C69.4809 61.4299 69.7287 60.7747 69.9682 60.1165C70.2314 59.3935 70.7446 59.1563 71.4761 59.3195C72.1625 59.472 72.8565 59.6192 73.7176 59.8053C72.45 57.5066 71.2579 55.3452 70.0102 53.0838L65.7476 55.982L69.1758 62.2688ZM47.0778 58.6079C47.2395 58.6506 47.2922 58.6842 47.3387 58.6743C47.7818 58.598 48.2249 58.5217 48.6657 58.4348C49.6206 58.2441 49.8761 58.3806 50.2147 59.3111C50.3841 59.7756 50.5297 60.2492 50.7341 60.8617C51.6738 59.1693 52.5608 57.6119 53.3906 56.024C53.4943 55.8272 53.3905 55.3375 53.2167 55.2102C52.2488 54.4887 51.2291 53.8373 50.1659 53.1181C49.1241 54.9661 48.1181 56.7554 47.0778 58.6056V58.6079Z" fill="#595959"/>
<path d="M25.4358 35.5864C21.3605 35.5864 17.286 35.5864 13.2123 35.5864C12.3917 35.5864 12.0965 35.1791 12.098 34.0664C12.098 33.5417 12.098 33.0169 12.098 32.4922C12.098 31.4244 12.3932 31.0118 13.162 31.0118C19.6972 31.0118 26.2326 31.0118 32.7683 31.0118C34.4167 31.0118 36.0648 31.0118 37.7127 31.0118C38.4304 31.0118 38.721 31.4107 38.7256 32.4007C38.7256 33.0047 38.7256 33.6095 38.7256 34.2136C38.7256 35.1494 38.4121 35.5864 37.7265 35.5864C34.4063 35.5895 31.0863 35.5895 27.7666 35.5864H25.4358Z" fill="#595959"/>
<path d="M30.3399 26.4579C24.7408 26.4579 19.1414 26.4579 13.5418 26.4579C12.5084 26.4579 12.0973 26.0407 12.0973 25.0088C12.0973 24.436 12.0973 23.8648 12.0973 23.2905C12.1049 22.3364 12.5496 21.8841 13.4991 21.8833C19.4017 21.8793 25.3036 21.878 31.2048 21.8795C36.5024 21.8795 41.7997 21.8795 47.0968 21.8795C48.1645 21.8795 48.5611 22.2738 48.5672 23.3416C48.571 23.9304 48.5672 24.5192 48.5672 25.1072C48.5672 26.0224 48.1409 26.4541 47.2295 26.4541L30.3399 26.4579Z" fill="#595959"/>
<path d="M30.3742 12.7798H47.0769C48.2003 12.7798 48.5642 13.1383 48.571 14.2533C48.5756 14.8894 48.5825 15.5255 48.571 16.1601C48.5573 16.835 48.1615 17.256 47.4926 17.33C47.35 17.3421 47.2069 17.3462 47.0639 17.3422H13.5646C12.5007 17.3422 12.0957 16.9304 12.0972 15.8626C12.0972 15.2898 12.0927 14.7186 12.0972 14.1443C12.1079 13.2153 12.5442 12.7798 13.48 12.7798C19.1126 12.7778 24.744 12.7778 30.3742 12.7798Z" fill="#595959"/>
<path d="M25.1902 44.6997C21.1892 44.6997 17.1884 44.6997 13.1879 44.6997C12.3878 44.6997 12.0973 44.2871 12.098 43.1797C12.098 42.6397 12.098 42.0989 12.098 41.5582C12.1026 40.5568 12.3985 40.1381 13.1215 40.1373C16.5404 40.1333 19.9598 40.1333 23.3796 40.1373C27.9618 40.1373 32.544 40.1391 37.1262 40.1427C37.339 40.1427 37.5709 40.1495 37.7616 40.2609C38.0666 40.4363 38.2313 40.7948 38.2313 41.2791C38.2313 41.9952 38.2313 42.7106 38.2313 43.426C38.2313 44.2375 37.9125 44.6967 37.3253 44.6997C36.0142 44.7081 34.7039 44.6997 33.3929 44.6997H25.1902Z" fill="#595959"/>
<path d="M24.9431 53.5842C20.9431 53.5842 16.9424 53.5842 12.9408 53.5842C12.1415 53.5842 11.8502 53.1723 11.851 52.0649C11.851 51.5242 11.851 50.9834 11.851 50.4427C11.8555 49.4421 12.1514 49.0233 12.8745 49.0226C16.2933 49.0185 19.7127 49.0185 23.1325 49.0226C27.7147 49.0226 32.2969 49.0241 36.8791 49.0272C37.0927 49.0272 37.3238 49.0348 37.5144 49.1454C37.8195 49.3216 37.9843 49.6793 37.9843 50.1643C37.9843 50.8797 37.9843 51.5951 37.9843 52.3113C37.9843 53.1228 37.6655 53.5811 37.0782 53.585C35.7679 53.5926 34.4569 53.585 33.1458 53.585L24.9431 53.5842Z" fill="#595959"/>
</svg>
