<svg width="66" height="65" viewBox="0 0 66 65" fill="none" xmlns="http://www.w3.org/2000/svg">
<path d="M37.6462 52.228C38.4469 52.228 39.2148 51.8785 39.7809 51.2564C40.3471 50.6343 40.6652 49.7906 40.6652 48.9109C40.6652 48.4753 40.5871 48.044 40.4353 47.6416C40.2836 47.2392 40.0612 46.8736 39.7809 46.5656C39.5005 46.2577 39.1677 46.0134 38.8015 45.8468C38.4352 45.6802 38.0426 45.5945 37.6462 45.5946H6.03718V13.0678H13.4433V17.6905C13.4433 19.2437 15.1087 20.0734 16.1718 19.05L24.4187 11.1086C24.5949 10.9391 24.7361 10.7301 24.8329 10.4957C24.9297 10.2613 24.9797 10.0069 24.9797 9.74953C24.9797 9.49216 24.9297 9.23776 24.8329 9.00337C24.7361 8.76898 24.5949 8.56001 24.4187 8.39046L16.1718 0.451504C15.1087 -0.571917 13.4433 0.256962 13.4433 1.81018V6.43367H3.01895C2.21828 6.43367 1.4504 6.78314 0.884236 7.40521C0.318072 8.02729 0 8.871 0 9.75075V48.8787C0.0758631 49.7893 0.457123 50.6364 1.06969 51.2554C1.68225 51.8744 2.48237 52.221 3.31456 52.228H37.6462Z" fill="#595959"/>
<path d="M48.1825 21.285H19.2676C17.6003 21.285 16.2487 22.7701 16.2487 24.6021C16.2487 26.4341 17.6003 27.9192 19.2676 27.9192H48.1825C49.8499 27.9192 51.2015 26.4341 51.2015 24.6021C51.2015 22.7701 49.8499 21.285 48.1825 21.285Z" fill="#595959"/>
<path d="M48.1825 57.7069H19.2676C18.8712 57.7069 18.4786 57.7927 18.1123 57.9594C17.746 58.1261 17.4132 58.3704 17.1329 58.6784C16.8525 58.9865 16.6302 59.3521 16.4785 59.7546C16.3267 60.157 16.2487 60.5884 16.2487 61.024C16.2487 61.4595 16.3267 61.8908 16.4785 62.2932C16.6302 62.6956 16.8526 63.0613 17.1329 63.3692C17.4133 63.6772 17.7461 63.9214 18.1124 64.088C18.4786 64.2546 18.8712 64.3403 19.2676 64.3402H48.1825C48.579 64.3403 48.9715 64.2546 49.3378 64.088C49.7041 63.9214 50.0369 63.6772 50.3172 63.3692C50.5976 63.0613 50.82 62.6956 50.9717 62.2932C51.1234 61.8908 51.2015 61.4595 51.2015 61.024C51.2015 60.5884 51.1234 60.157 50.9717 59.7546C50.82 59.3521 50.5976 58.9865 50.3173 58.6784C50.0369 58.3704 49.7041 58.1261 49.3378 57.9594C48.9716 57.7927 48.579 57.7069 48.1825 57.7069Z" fill="#595959"/>
<path d="M31.9939 31.7563H19.2083C17.541 31.7563 16.1894 33.2415 16.1894 35.0734C16.1894 36.9054 17.541 38.3905 19.2083 38.3905H31.9939C33.6612 38.3905 35.0129 36.9054 35.0129 35.0734C35.0129 33.2415 33.6612 31.7563 31.9939 31.7563Z" fill="#595959"/>
<path d="M65.6451 9.75067C65.6451 9.31507 65.567 8.88372 65.4153 8.48128C65.2636 8.07883 65.0412 7.71316 64.7608 7.40514C64.4805 7.09712 64.1477 6.85278 63.7814 6.68608C63.4151 6.51938 63.0226 6.43359 62.6261 6.43359H31.7861C31.3897 6.43359 30.9972 6.51939 30.6309 6.6861C30.2647 6.85281 29.9319 7.09715 29.6516 7.40518C29.3714 7.71321 29.1491 8.0789 28.9974 8.48134C28.8458 8.88378 28.7678 9.3151 28.7679 9.75067C28.7678 10.1862 28.8458 10.6175 28.9974 11.02C29.1491 11.4224 29.3714 11.7881 29.6516 12.0961C29.9319 12.4042 30.2647 12.6485 30.6309 12.8152C30.9972 12.9819 31.3897 13.0677 31.7861 13.0677H59.6072V45.6098H55.7563V40.9863C55.7563 39.4331 54.091 38.6034 53.0285 39.6269L44.7817 47.5674C44.6054 47.737 44.4642 47.9459 44.3675 48.1803C44.2707 48.4147 44.2207 48.6691 44.2207 48.9265C44.2207 49.1838 44.2707 49.4383 44.3675 49.6726C44.4642 49.907 44.6054 50.116 44.7817 50.2856L53.0285 58.2253C54.091 59.2487 55.7563 58.4199 55.7563 56.8667V52.2432H62.5939C63.4019 52.2331 64.174 51.8749 64.7441 51.2457C65.3142 50.6164 65.6367 49.7665 65.6422 48.8787V9.75067H65.6451Z" fill="#595959"/>
</svg>
