<svg width="81" height="75" viewBox="0 0 81 75" fill="none" xmlns="http://www.w3.org/2000/svg">
<path d="M52.4923 8.00111C54.0627 8.45872 56.1006 7.79671 56.0769 6.83573C56.035 5.31036 56.0655 3.785 56.0624 2.25963C56.0624 1.86151 55.7703 1.5351 55.1922 1.32307C54.8109 1.18274 54.3533 1.10266 53.9323 0.995117H53.1696C53.1533 1.00772 53.135 1.01751 53.1154 1.02409C51.9523 1.20866 51.2133 1.74787 51.1866 2.43047C51.1797 2.58987 51.1523 2.74851 51.1561 2.90715C51.1881 4.24337 51.2125 5.57654 51.2674 6.91581C51.2857 7.408 51.694 7.76976 52.4923 8.00111Z" fill="#595959"/>
<path d="M34.5213 7.95536C36.1115 8.46712 38.157 7.91951 38.218 6.8876C38.3065 5.37749 38.2531 3.86433 38.2516 2.35269C38.2516 2.03542 38.1211 1.74255 37.7223 1.49391C37.2929 1.22774 36.7407 1.10189 36.1595 0.998169H35.3968C35.1741 1.04698 34.9392 1.07977 34.731 1.14536C33.7174 1.47103 33.3315 1.9927 33.3422 2.63183C33.3658 4.00466 33.3749 5.37749 33.4222 6.7549C33.439 7.24454 33.664 7.68232 34.5213 7.95536Z" fill="#595959"/>
<path d="M15.6449 6.96228C15.7166 7.58997 16.3969 8.00182 17.4753 8.12156C19.0388 8.29545 20.385 7.69216 20.4368 6.76322C20.4849 5.89604 20.4849 5.02812 20.4765 4.16095C20.4758 3.46577 20.4397 2.77108 20.3682 2.07959C20.3468 1.89349 20.1477 1.69824 19.951 1.53808C19.5597 1.2208 18.9412 1.09726 18.312 0.996582H17.5493C17.5182 1.01093 17.4858 1.02217 17.4524 1.03014C16.3466 1.20174 15.5823 1.74248 15.5594 2.38695C15.5305 3.21904 15.4916 4.05112 15.5038 4.88245C15.5144 5.57572 15.5686 6.27053 15.6449 6.96228Z" fill="#595959"/>
<path d="M18.1671 34.2786C17.2519 34.2679 16.3366 34.2786 15.426 34.2786V34.2237C14.9814 34.2237 14.5367 34.2183 14.0928 34.2237C13.6352 34.2298 13.1776 34.2679 12.72 34.2565C11.4837 34.226 10.4808 35.6194 10.4625 36.4591C10.4411 37.3972 10.4205 38.3376 10.4686 39.2734C10.5448 40.7583 11.5111 41.6698 12.8077 41.6774C14.6381 41.6873 16.4686 41.7064 18.2952 41.6583C19.4499 41.6278 20.3118 40.8132 20.388 39.6807C20.4643 38.5946 20.4399 37.4994 20.4139 36.4095C20.3819 35.0428 19.2074 34.29 18.1671 34.2786Z" fill="#595959"/>
<path d="M33.1691 36.6284C33.1553 35.7559 32.8335 34.9917 32.0014 34.5974C31.5913 34.4018 31.1452 34.2927 30.6911 34.2771C28.9651 34.2413 27.2392 34.2809 25.5133 34.2565C24.2533 34.2397 23.3159 35.4646 23.2099 36.3264C23.0571 37.4869 23.0828 38.6638 23.2862 39.8165C23.4937 40.9338 24.3044 41.6294 25.437 41.6683C26.3522 41.6988 27.2674 41.6744 28.1826 41.6744V41.6652C29.1474 41.6652 30.1145 41.7034 31.077 41.6546C31.4448 41.6402 31.8034 41.5354 32.1211 41.3495C32.4308 40.7205 32.7638 40.1053 33.1202 39.5038C33.1866 38.5474 33.1866 37.5856 33.1691 36.6284Z" fill="#595959"/>
<path d="M45.8364 26.0668C45.7792 25.0532 44.9212 24.1715 43.9411 24.1418C41.9757 24.0823 40.008 24.1197 38.041 24.096C37.17 24.0854 36.1 25.0936 35.9505 26.079C35.7688 27.2739 35.7899 28.491 36.0131 29.6789C36.1923 30.6368 36.9779 31.3957 37.9404 31.4498C38.7686 31.4956 39.6007 31.4735 40.4328 31.4643C42.1214 30.2345 43.948 29.2063 45.8753 28.4006C45.8921 27.6234 45.8799 26.8425 45.8364 26.0668Z" fill="#595959"/>
<path d="M58.6082 26.4444C58.5793 26.2156 58.545 25.9868 58.5015 25.758C58.3383 24.8893 57.5054 24.1563 56.6207 24.1327C54.6926 24.0884 52.7623 24.1243 50.8342 24.0869C49.858 24.0671 48.7986 25.2004 48.6804 26.0501C48.6154 26.5112 48.5772 26.9757 48.566 27.4412C51.0488 26.7059 53.6249 26.3337 56.2142 26.3361C57.0211 26.3376 57.8191 26.3737 58.6082 26.4444Z" fill="#595959"/>
<path d="M31.1586 24.1411C29.2435 24.0739 27.3254 24.1136 25.4087 24.0877C24.2739 24.0717 23.2358 25.3415 23.2168 26.1744C23.1893 27.3253 23.1848 28.4838 23.2892 29.6286C23.3808 30.6239 24.2083 31.3865 25.1997 31.4491C26.1912 31.5116 27.2041 31.4628 28.2063 31.4628C29.2092 31.4628 30.2152 31.5147 31.2128 31.4483C31.7015 31.4192 32.1628 31.2125 32.5099 30.8672C32.8569 30.5218 33.0659 30.0615 33.0974 29.5729C33.1768 28.5229 33.2002 27.4694 33.1675 26.4169C33.1225 24.919 32.1188 24.1746 31.1586 24.1411Z" fill="#595959"/>
<path d="M18.3226 44.4802C16.4449 44.4352 14.5642 44.4916 12.6864 44.4504C11.6461 44.4275 10.5975 45.5624 10.4708 46.5287C10.3235 47.664 10.3467 48.8148 10.5395 49.9433C10.7118 50.9683 11.4638 51.7409 12.5026 51.8202C13.4872 51.8965 14.4818 51.837 15.4717 51.837V51.8927C15.9294 51.8927 16.387 51.8973 16.8446 51.8927C17.3022 51.8881 17.7598 51.8713 18.2174 51.8622C19.2089 51.8431 20.3582 51.0476 20.3948 49.8678C20.4299 48.7405 20.4574 47.6087 20.3948 46.4845C20.3737 45.948 20.1465 45.4403 19.7605 45.067C19.3746 44.6937 18.8596 44.4835 18.3226 44.4802Z" fill="#595959"/>
<path d="M30.8093 44.4757C29.0223 44.4154 27.23 44.4955 25.4416 44.4467C24.3921 44.4177 23.2641 45.5686 23.2145 46.541C23.1549 47.629 23.1719 48.7198 23.2656 49.8053C23.3785 51.0454 24.2701 51.8211 25.5087 51.8645C26.3964 51.895 27.2857 51.8706 28.1781 51.8706V51.8752H29.409C29.5284 49.355 30.0034 46.8644 30.82 44.4772L30.8093 44.4757Z" fill="#595959"/>
<path d="M80.3203 47.7918C79.9664 47.1923 79.7323 47.0787 79.036 47.1718L76.5267 47.5096C76.3589 47.0703 76.2026 46.6379 76.0302 46.2131C74.9756 43.6175 73.4089 41.2611 71.4236 39.2844C69.4382 37.3077 67.075 35.7513 64.4749 34.708C62.0129 33.7241 59.4526 33.2108 56.7931 33.2429C56.173 33.2497 55.553 33.2802 54.9322 33.2993L53.1536 33.5388C52.6708 33.6532 52.188 33.7676 51.7045 33.8805C50.2951 34.2197 48.9293 34.7197 47.6341 35.3708C45.8314 36.2548 44.1701 37.4019 42.7048 38.7746C40.2053 41.0921 38.3153 43.9898 37.2021 47.2114C36.4565 49.3411 36.0724 51.5805 36.0657 53.8368C36.0657 54.3913 36.1107 54.945 36.1328 55.4995C36.1374 55.6146 36.1328 55.7283 36.1328 55.8457C36.2106 56.4223 36.2881 56.9989 36.3654 57.5755C36.4798 58.0672 36.5945 58.5589 36.7094 59.0505C37.1319 60.817 37.8039 62.5142 38.7053 64.0911C40.4801 67.277 43.0709 69.933 46.2116 71.7865C49.8389 73.9449 53.7721 74.896 57.9836 74.6809C59.5513 74.5945 61.1033 74.3239 62.6078 73.8748C66.1283 72.8406 69.16 70.9949 71.7165 68.369C73.5209 66.5125 74.9593 64.3326 75.9562 61.9434C76.1675 61.4438 76.2041 60.942 75.9952 60.4447C75.6901 59.7232 75.1364 59.3053 74.3546 59.2633C73.5157 59.2183 72.9116 59.6103 72.5341 60.3601C72.1047 61.2112 71.7203 62.0898 71.2253 62.9013C70.0369 64.8393 68.4624 66.512 66.5997 67.8153C64.6481 69.2032 62.4233 70.1597 60.0734 70.6212C56.1224 71.3893 52.0271 70.7304 48.5165 68.7618C45.9737 67.3427 43.8413 65.2899 42.3265 62.8029C41.3842 61.2691 40.696 59.5929 40.2887 57.8394C39.9862 56.5623 39.8377 55.2537 39.8463 53.9413C39.847 52.665 39.9924 51.3929 40.2795 50.1493C41.0707 46.8336 42.7008 43.999 45.1698 41.6454C47.538 39.3939 50.34 37.9708 53.5311 37.3202C55.2098 36.9812 56.9311 36.9071 58.6327 37.1005C61.1148 37.3651 63.5057 38.1841 65.6288 39.4969C68.5674 41.3098 70.7731 43.7801 72.2222 46.9186C72.3869 47.2755 72.5349 47.6408 72.6988 48.0206C72.6226 48.0389 72.5814 48.0519 72.5463 48.0572C71.7127 48.1678 70.8783 48.2761 70.0455 48.389C69.629 48.4454 69.311 48.6338 69.1753 49.0594C69.0395 49.485 69.1913 49.8152 69.5047 50.1028C71.2792 51.7298 73.0533 53.3569 74.8267 54.9839C75.3088 55.4248 75.9708 55.3279 76.3239 54.7742C77.4618 52.9707 78.5957 51.1641 79.7255 49.3546C79.9672 48.9648 80.1594 48.5446 80.3737 48.1388C80.3547 48.0229 80.3394 47.9077 80.3203 47.7918Z" fill="#595959"/>
<path d="M54.0841 52.8454C53.1688 53.5981 52.7631 54.5835 52.876 55.7504C53.085 57.9012 55.3288 59.2587 57.3384 58.4656C57.4031 58.4339 57.4749 58.4194 57.5468 58.4237C57.6187 58.428 57.6883 58.4508 57.7487 58.4899C59.8553 59.7133 61.9654 60.9323 64.079 62.147C65.0072 62.6809 66.149 62.4002 66.6661 61.514C66.7971 61.2993 66.8835 61.0605 66.9204 60.8117C66.9572 60.5629 66.9436 60.3093 66.8804 60.0659C66.8172 59.8225 66.7057 59.5942 66.5525 59.3948C66.3994 59.1953 66.2076 59.0287 65.9888 58.9048C65.204 58.4411 64.4123 57.9896 63.6244 57.532C62.2966 56.7655 60.9673 56.0021 59.6433 55.228C59.5434 55.17 59.4282 55.0503 59.4145 54.9458C59.3121 54.1298 58.8981 53.385 58.259 52.8675C58.1901 52.8185 58.1346 52.7529 58.0978 52.6767C58.061 52.6006 58.044 52.5164 58.0485 52.432C58.0569 50.5718 58.0531 48.7116 58.0531 46.8507C58.0531 44.9897 58.0531 43.1135 58.0531 41.2442C58.0531 40.425 57.4658 39.654 56.697 39.4473C55.4393 39.1094 54.2755 40.0002 54.274 41.3098C54.274 45.0215 54.274 48.7332 54.274 52.4449C54.2794 52.5224 54.2648 52.5999 54.2315 52.67C54.1983 52.7402 54.1475 52.8006 54.0841 52.8454ZM56.1433 53.9894C56.4221 53.9861 56.6955 54.0656 56.929 54.2178C57.1626 54.3701 57.3456 54.5883 57.455 54.8447C57.5644 55.1011 57.5953 55.3842 57.5436 55.6582C57.4919 55.9321 57.36 56.1845 57.1647 56.3835C56.9694 56.5824 56.7195 56.7189 56.4466 56.7756C56.1736 56.8324 55.8899 56.8068 55.6315 56.7022C55.3732 56.5975 55.1517 56.4185 54.9951 56.1878C54.8386 55.9572 54.754 55.6852 54.7522 55.4064C54.7494 55.2219 54.7834 55.0385 54.852 54.8672C54.9207 54.6958 55.0226 54.5397 55.152 54.4081C55.2814 54.2764 55.4357 54.1717 55.6058 54.1001C55.776 54.0285 55.9587 53.9914 56.1433 53.9909V53.9894Z" fill="#595959"/>
<path d="M68.8191 18.1783C68.8069 15.0014 68.7832 11.8249 68.7482 8.64854H68.739V8.02467C68.739 6.76065 68.2369 5.5484 67.3431 4.6546C66.4493 3.7608 65.237 3.25867 63.973 3.25867L58.7311 3.3273V3.595C58.7311 4.63607 58.6929 5.67714 58.7372 6.71744C58.7372 6.75863 58.7372 6.7998 58.7372 6.84099C58.6895 7.02925 58.6536 7.22029 58.6297 7.413C58.2254 8.58295 56.7306 9.64614 54.8353 9.9146L54.6828 9.93367C54.033 9.95655 53.4373 9.96722 52.8851 9.96798C51.9474 9.89207 51.0381 9.60948 50.2226 9.14048C49.2448 8.56542 48.6263 7.86222 48.6438 6.95844C48.6576 6.21788 48.6034 5.47732 48.5882 4.73599C48.579 4.27304 48.5882 3.81009 48.5882 3.33494H40.9537C40.9461 3.42722 40.9347 3.50883 40.9339 3.59044C40.9247 4.58879 40.9339 5.58789 40.9011 6.58624C40.8889 6.95614 40.9011 7.35581 40.6982 7.68986C39.5656 9.56759 36.9275 10.5118 33.8341 9.71173C32.0113 9.23811 30.9168 8.32745 30.839 6.98741C30.8017 6.34752 30.7848 5.70687 30.7734 5.06622C30.762 4.49421 30.7734 3.92221 30.7734 3.34104H23.1252C23.1191 3.40129 23.1123 3.44171 23.1115 3.48289C23.0856 4.60632 23.0665 5.73051 23.0299 6.85394C23.0287 7.12278 22.986 7.38982 22.9033 7.64562C22.5731 8.57914 20.7373 9.81545 19.1036 9.91384C18.662 9.94053 18.2128 9.9085 17.7712 9.93367C16.6358 10.005 15.5074 9.71096 14.5512 9.09472C13.6215 8.5166 12.9678 7.84773 12.9976 6.9592C13.0174 6.3605 12.964 5.76102 12.9556 5.16156C12.9473 4.56209 12.9556 3.95195 12.9556 3.3235L5.14348 3.3273C3.87945 3.3273 2.66721 3.82944 1.77341 4.72324C0.879609 5.61704 0.377453 6.82928 0.377453 8.0933V9.44859C0.364488 9.5874 0.355345 9.72621 0.34848 9.86578H0.329413L0.292806 31.3681C0.292806 31.3681 0.24246 44.0004 0.398047 54.6833C0.408725 55.4284 0.310364 57.1559 1.30109 58.9139C3.2078 62.2949 5.92066 64.4449 9.94 64.5273C13.5467 64.6035 17.1542 64.6035 20.7617 64.615C24.4856 64.6231 28.2093 64.6254 31.9327 64.6218C31.1665 62.9996 30.566 61.3043 30.1404 59.5614C27.5102 59.5584 24.8794 59.5535 22.2482 59.5469C17.9329 59.5385 13.6169 59.5225 9.30084 59.5286C8.63349 59.5286 8.15684 59.1473 7.65042 58.8361C6.48276 58.1207 5.81999 57.0011 5.32882 55.7617C5.29671 55.6527 5.28455 55.5388 5.29296 55.4254C5.29296 43.3893 5.29296 31.3534 5.29296 19.3177V18.9303H63.8281V27.4357C65.5555 27.9462 67.2269 28.63 68.8168 29.4766C68.832 25.71 68.8328 21.9439 68.8191 18.1783Z" fill="#595959"/>
</svg>
