<svg width="81" height="71" viewBox="0 0 81 71" fill="none" xmlns="http://www.w3.org/2000/svg">
<path d="M43.3254 70.9996H40.8605C40.8084 70.8849 40.6968 70.8827 40.597 70.8516C39.9537 70.6665 39.3412 70.3861 38.7794 70.0197C38.1706 69.6167 37.6118 69.1416 37.1151 68.6045C36.8076 68.2789 36.495 67.9576 36.1831 67.6364C36.1274 67.5787 36.0635 67.5291 35.9872 67.4618C35.886 67.558 35.792 67.6438 35.7032 67.7341C35.2578 68.1898 34.7541 68.5836 34.2055 68.905C33.2789 69.4525 32.219 69.7278 31.1455 69.6999C30.4289 69.6793 29.7206 69.5397 29.049 69.2869C27.6547 68.7688 26.554 67.8969 25.8202 66.5802C25.4755 65.9466 25.23 65.263 25.0922 64.5537C25.0783 64.4864 25.0548 64.4212 25.0365 64.3576C24.8963 64.3258 24.7723 64.294 24.6461 64.2688C22.4358 63.8247 20.3569 61.9433 19.8763 59.3284C19.8616 59.2492 19.8352 59.1722 19.8168 59.1063C19.5138 59.0323 19.2298 58.9709 18.9465 58.8843C17.8758 58.5521 16.9134 57.9354 16.1604 57.0988C15.4074 56.2622 14.8916 55.2366 14.6669 54.1296C14.6471 54.0282 14.6185 53.9283 14.5936 53.8299C14.4468 53.7973 14.3221 53.7699 14.1973 53.7403C12.8684 53.4228 11.7368 52.7685 10.8416 51.7212C10.0303 50.7686 9.51997 49.5931 9.37613 48.3457C9.2323 47.0983 9.46154 45.836 10.0344 44.721C10.3667 44.1072 10.7871 43.5463 11.2819 43.0564C11.4206 42.9136 11.5629 42.7729 11.7177 42.6175C11.6796 42.4118 11.6444 42.2038 11.6018 41.9965C11.2618 40.2932 10.9211 38.5909 10.5796 36.8896C10.2435 35.2085 9.90864 33.5279 9.57499 31.8478C9.53979 31.6624 9.44792 31.4929 9.31228 31.363C8.3796 30.4289 7.45426 29.4882 6.52378 28.5505C5.45461 27.4699 4.38033 26.3944 3.3185 25.3072C2.46214 24.4308 1.63439 23.5249 0.765554 22.6612C0.364801 22.2599 0.0984458 21.7424 0.00382634 21.1809C-0.00664493 21.0992 -0.00316018 21.0164 0.0141098 20.9359C0.0295199 20.8426 0.061802 20.7531 0.0816151 20.6613C0.149179 20.3231 0.304416 20.009 0.531471 19.7509C0.726666 19.5289 0.923304 19.3069 1.13024 19.1004C7.17835 12.9676 13.294 6.9014 19.298 0.723467C19.6462 0.347716 20.117 0.111205 20.624 0.0573426C20.6804 0.0456289 20.7353 0.0274864 20.7877 0.0032959H21.1399C21.1924 0.0273929 21.2472 0.0457536 21.3036 0.0580654C21.8172 0.110615 22.2392 0.346735 22.6024 0.703482C22.6949 0.793779 22.7807 0.891461 22.8725 0.983239C25.661 3.7928 28.4495 6.60312 31.238 9.41417C31.4009 9.5838 31.6024 9.71082 31.825 9.78424C32.7276 10.0803 33.6258 10.3904 34.5262 10.6916C36.6939 11.4185 38.8638 12.1408 41.0293 12.8736C41.216 12.9418 41.4214 12.9357 41.6038 12.8566C44.1654 11.8396 46.7288 10.8261 49.2942 9.81606C49.4804 9.74505 49.6492 9.63421 49.7888 9.49115C50.2849 8.98711 50.7875 8.48973 51.2851 7.98792C53.692 5.56175 56.0977 3.13458 58.5021 0.706428C58.7158 0.4762 58.984 0.304539 59.2815 0.207575C60.2303 -0.0884806 61.0617 0.0743579 61.783 0.770828C61.918 0.901093 62.0494 1.03727 62.1822 1.1705C66.0646 5.0878 69.9467 9.00486 73.8286 12.9217C75.6778 14.7888 77.5253 16.6576 79.3711 18.5282C79.8114 18.9723 80.2465 19.4164 80.6868 19.8605C80.7819 19.9472 80.8424 20.0658 80.8571 20.1943C80.8899 20.3777 80.9358 20.5585 80.9943 20.7353V21.4451C80.9686 21.4972 80.9496 21.5524 80.9378 21.6094C80.9107 21.944 80.7463 22.2156 80.5438 22.4643C80.3728 22.6738 80.1908 22.8758 80.0007 23.069C79.1407 23.9414 78.2782 24.8115 77.4133 25.6795L72.2032 30.9159C71.6831 31.429 71.204 31.9826 70.7701 32.5716C67.9375 36.4909 65.1038 40.4089 62.2688 44.3258C62.2285 44.3813 62.1954 44.4412 62.1492 44.5123C62.2365 44.6189 62.3172 44.7188 62.3994 44.8165C62.7524 45.2287 63.057 45.6808 63.3072 46.1635C63.7435 46.9929 63.9704 47.918 63.9676 48.8569C63.9588 50.1455 63.5875 51.326 62.9219 52.4155C62.3805 53.3101 61.6009 54.0335 60.672 54.5034C60.1057 54.7905 59.5007 54.9922 58.8764 55.1022C58.8103 55.114 58.7458 55.1392 58.6702 55.1607C58.5776 55.6873 58.4288 56.2022 58.2262 56.6964C58.0151 57.1848 57.7425 57.6437 57.4153 58.062C57.0947 58.4708 56.728 58.8407 56.3227 59.1641C55.9073 59.4929 55.4518 59.7665 54.9674 59.9782C54.483 60.1914 53.9708 60.3091 53.4564 60.4149C53.433 60.5052 53.4102 60.5718 53.3985 60.6406C53.0059 62.9217 51.1647 65.0896 48.5332 65.6107C48.432 65.6307 48.3329 65.6632 48.2507 65.6847C48.239 65.7022 48.2289 65.7208 48.2207 65.7402C48.2045 65.8083 48.1891 65.8779 48.1744 65.9467C47.7466 67.928 46.6569 69.4054 44.8605 70.3298C44.4657 70.5333 44.0408 70.6784 43.6262 70.8412C43.5213 70.8819 43.4054 70.9019 43.3254 70.9996ZM35.5359 32.4206C35.4735 32.4739 35.4178 32.5161 35.3686 32.565C35.0443 32.8906 34.7228 33.2185 34.3985 33.5442C33.0189 34.9319 31.6643 36.3463 30.2524 37.6993C28.649 39.2358 26.7301 39.745 24.5646 39.2662C23.3861 39.0071 22.314 38.3916 21.4914 37.5017C20.0737 35.9955 19.5299 34.1955 19.8337 32.1505C20.0289 30.8367 20.6233 29.708 21.5567 28.768C21.8803 28.4416 22.1996 28.1115 22.5232 27.7851C23.915 26.3774 25.3073 24.9711 26.7001 23.5664C27.6785 22.5795 28.6569 21.5927 29.6353 20.6058C31.1396 19.0944 32.6449 17.5838 34.1512 16.0739C34.1703 16.0455 34.1865 16.0153 34.1996 15.9836C33.8327 15.8312 33.4541 15.7216 33.0813 15.5943C32.6931 15.4618 32.3064 15.3249 31.916 15.1998C31.5381 15.0792 31.1719 14.923 30.8065 14.8357L14.6002 31.1927C14.6046 31.2209 14.6119 31.2793 14.6229 31.3363C14.7271 31.8455 14.8357 32.3548 14.937 32.8647C15.3655 35.02 15.7936 37.176 16.2211 39.3328C16.2439 39.4453 16.2813 39.5548 16.3136 39.6725L16.5088 39.6488C17.1891 39.5748 17.8693 39.5659 18.5408 39.708C20.5536 40.1344 22.8578 41.7671 23.3942 44.661C23.4111 44.7513 23.439 44.8394 23.4603 44.9231C23.5931 44.9541 23.7061 44.9845 23.8205 45.0074C26.0829 45.4515 28.1501 47.3862 28.6102 49.9271C28.627 50.0167 28.6549 50.104 28.6791 50.1973C30.0198 50.4245 31.1631 51.0003 32.1163 51.9588C33.0573 52.8991 33.6761 54.1178 33.8826 55.4375C34.0712 55.4789 34.2429 55.5115 34.4125 55.5559C35.1664 55.7399 35.8795 56.0648 36.5148 56.5136C36.5772 56.5573 36.6308 56.6402 36.7401 56.5876C36.7482 56.5003 36.754 56.407 36.7658 56.3145C36.8707 55.4567 37.2868 54.8039 38.0434 54.3902C38.5089 54.143 39.0383 54.0459 39.5603 54.1121C40.0822 54.1783 40.5714 54.4045 40.9618 54.7602C41.234 55.003 41.4908 55.2635 41.7484 55.5233C43.2914 57.0791 44.8343 58.6354 46.3773 60.1921C46.5017 60.3169 46.6425 60.424 46.7956 60.5104C46.9283 60.5865 47.0761 60.632 47.2284 60.6436C47.3806 60.6553 47.5336 60.6328 47.6762 60.5777C47.8384 60.5235 47.9863 60.4328 48.1087 60.3125C48.231 60.1922 48.3247 60.0454 48.3826 59.8832C48.4405 59.721 48.461 59.5477 48.4428 59.3763C48.4245 59.2049 48.3679 59.04 48.2772 58.8939C48.1768 58.7341 48.0573 58.5874 47.9213 58.4572C46.4047 56.9394 44.8881 55.4236 43.3716 53.9098C43.1133 53.6522 42.8455 53.4028 42.5996 53.1327C41.598 52.0343 41.719 50.2802 42.8432 49.3683C43.7678 48.6186 45.2083 48.6282 46.1491 49.4771C46.3149 49.6252 46.4757 49.7835 46.6334 49.9419C47.7048 51.0201 48.7754 52.0992 49.8453 53.1793C50.3834 53.7221 50.9248 54.2648 51.4693 54.8076C51.6078 54.9519 51.7599 55.0823 51.9235 55.1969C52.3638 55.4871 52.8613 55.4456 53.2583 55.1073C53.6553 54.7691 53.7852 54.2518 53.5606 53.761C53.4853 53.6146 53.3951 53.4764 53.2913 53.3488C53.2311 53.2761 53.1653 53.2083 53.0947 53.146L48.614 48.6311C48.3491 48.3632 48.0812 48.0975 47.8229 47.8229C47.4372 47.4109 47.1973 46.8818 47.1405 46.318C47.0837 45.7542 47.2132 45.1873 47.5088 44.7055C48.3087 43.4213 50.0772 43.1512 51.2608 44.137C51.4413 44.285 51.6197 44.4434 51.7863 44.6092C52.3616 45.1836 52.9342 45.7609 53.5041 46.3412C54.597 47.4474 55.6899 48.5539 56.7828 49.6607C56.8894 49.7707 57.0075 49.8687 57.135 49.953C57.5621 50.2291 58.2255 50.1507 58.5652 49.7947C58.905 49.4386 58.9813 48.8243 58.7392 48.4091C58.6472 48.2583 58.537 48.1196 58.4112 47.9961C57.6773 47.2481 56.9393 46.5028 56.1972 45.7602L44.7996 34.2614C44.7013 34.1622 44.6 34.066 44.5097 33.9771C44.3901 33.9942 44.2969 34.0038 44.206 34.0223C43.5847 34.1462 42.9554 34.2248 42.323 34.2577C41.3849 34.3093 40.4442 34.2402 39.5235 34.0519C38.2109 33.7842 36.9545 33.2884 35.8104 32.5864C35.726 32.525 35.6342 32.4769 35.5359 32.4206ZM65.9415 30.5703L62.0523 26.6475C60.7579 25.3429 59.4637 24.0378 58.1697 22.7322C56.8672 21.4177 55.5581 20.1106 54.2673 18.7858C52.9765 17.4609 50.5711 15.0444 50.3473 14.8838C50.2408 14.923 50.1205 14.9652 50.0016 15.0126C47.6343 15.9476 45.2673 16.8827 42.9005 17.8177C41.2201 18.4799 39.5391 19.1406 37.8577 19.7998C37.6046 19.8939 37.3742 20.0413 37.1819 20.232C36.5757 20.8426 35.9564 21.4399 35.351 22.0506C33.7498 23.665 32.1508 25.282 30.5541 26.9014C28.8056 28.6689 27.0564 30.4358 25.3065 32.2023C25.1898 32.3172 25.0818 32.4409 24.9836 32.5724C24.9104 32.6658 24.858 32.7741 24.8301 32.8898C24.8022 33.0056 24.7995 33.126 24.8222 33.2429C24.8584 33.428 24.9207 33.607 25.0071 33.7743C25.2199 34.1614 25.5656 34.3354 26.0015 34.3183C26.2619 34.3091 26.512 34.2137 26.7132 34.0467C26.8307 33.9487 26.9428 33.8444 27.0493 33.7344C29.1172 31.6541 31.1851 29.5728 33.253 27.4906C33.377 27.3655 33.5047 27.2426 33.6368 27.1264C33.8485 26.9385 34.0863 26.7829 34.3427 26.6646C34.7481 26.4714 35.2002 26.4007 35.6445 26.461C36.0528 26.5175 36.4407 26.6757 36.7731 26.9214C37.0006 27.0872 37.209 27.2804 37.4226 27.4647C38.9159 28.754 40.6352 29.3254 42.5974 29.1174C43.9253 28.9796 45.1786 28.4319 46.1865 27.549C46.538 27.2349 46.8657 26.8947 47.1669 26.5314C47.3679 26.3004 47.5624 26.0628 47.7686 25.8356C48.4753 25.0585 49.3581 24.7558 50.3781 24.9474C51.5573 25.1695 52.3689 26.1687 52.3961 27.3899C52.4159 28.2684 52.0923 29.0034 51.4421 29.5918C50.8404 30.138 50.2381 30.6835 49.6354 31.2283C49.5488 31.3067 49.4667 31.3896 49.3676 31.4851C52.4085 34.5507 55.4416 37.6073 58.4669 40.6547C58.5064 40.689 58.5483 40.7205 58.5924 40.7487L65.9415 30.5703ZM60.1928 6.46767C59.8993 6.70378 54.9241 11.7071 54.7626 11.9247C54.9828 12.2267 67.2544 24.6418 69.0948 26.427C69.1439 26.4743 69.2004 26.5151 69.2716 26.575L74.7019 21.1069C69.8567 16.2239 65.0204 11.3452 60.1928 6.47064V6.46767ZM38.9812 63.2548C39.1866 63.4665 39.3738 63.6619 39.5631 63.8536C40.1012 64.3963 40.6394 64.9391 41.1775 65.4819C41.3392 65.6551 41.5448 65.7804 41.7719 65.8445C42.1872 65.9526 42.5652 65.8838 42.8726 65.5729C43.1801 65.2621 43.2975 64.9068 43.1918 64.4738C43.1249 64.2211 42.9895 63.9922 42.8007 63.8129C41.5825 62.5847 40.3639 61.3566 39.1448 60.1285C39.0832 60.0768 39.0183 60.0293 38.9504 59.9864C39.234 61.0568 39.2446 62.1821 38.9812 63.2578V63.2548ZM15.6106 48.7733C15.8792 48.8162 16.0942 48.7126 16.2813 48.5327L16.3591 48.4587C16.7451 48.079 17.1348 47.7045 17.5149 47.3196C17.7541 47.0768 17.9918 46.8304 18.2069 46.5654C18.3862 46.3502 18.478 46.0743 18.4635 45.7935C18.4491 45.5127 18.3296 45.2479 18.1291 45.0526C17.6946 44.6085 17.0834 44.5611 16.6035 44.9349C16.5297 44.9931 16.4594 45.0557 16.3929 45.1221C15.9409 45.5662 15.4881 46.014 15.0404 46.4648C14.8834 46.6231 14.7359 46.7919 14.5936 46.9643C14.5076 47.0623 14.4442 47.1781 14.4078 47.3036C14.3714 47.4292 14.3629 47.5612 14.383 47.6904C14.4938 48.3965 14.8423 48.7362 15.4727 48.771C15.5204 48.7784 15.5666 48.7762 15.6106 48.7762V48.7733ZM28.8927 56.3619C28.9228 55.7935 28.3651 55.2265 27.7824 55.2221C27.612 55.2188 27.4427 55.2513 27.2853 55.3174C27.1279 55.3835 26.9859 55.4818 26.8681 55.6062C26.2869 56.1894 25.7101 56.7786 25.1304 57.3633C24.8699 57.626 24.7598 57.9302 24.8582 58.2988C24.8736 58.3558 24.8736 58.4165 24.8875 58.4735C24.9576 58.7509 25.1297 58.991 25.3689 59.145C25.608 59.2991 25.8964 59.3557 26.1754 59.3032C26.419 59.2579 26.643 59.1386 26.8175 58.9613C27.1778 58.6052 27.541 58.2529 27.8976 57.894C28.1212 57.668 28.3413 57.4378 28.5581 57.2034C28.6662 57.0929 28.7516 56.962 28.8094 56.8181C28.8673 56.6741 28.8963 56.5201 28.8949 56.3648L28.8927 56.3619ZM34.1101 61.6657C34.1126 61.3567 33.9952 61.0589 33.7829 60.836C33.5707 60.6131 33.2804 60.4826 32.9742 60.4726C32.8272 60.4684 32.6808 60.4939 32.5437 60.5476C32.4066 60.6012 32.2815 60.6819 32.1758 60.785C31.5311 61.3712 30.9186 61.9926 30.3412 62.6464C30.2642 62.7351 30.1956 62.831 30.1365 62.9328C30.0326 63.1075 29.9968 63.3148 30.036 63.5146C30.0756 63.7366 30.1592 63.9483 30.2818 64.137C30.4061 64.3104 30.5792 64.4421 30.7786 64.5151C30.978 64.5881 31.1945 64.5989 31.4001 64.5463C31.6285 64.4878 31.8397 64.3749 32.0158 64.217C32.39 63.8588 32.7716 63.5072 33.1363 63.1401C33.3851 62.8892 33.6126 62.6175 33.8459 62.3518C34.0199 62.168 34.1156 61.9228 34.1123 61.6687L34.1101 61.6657ZM22.4182 49.9856C22.1709 49.9419 21.9669 50.0493 21.7886 50.215C21.5905 50.3993 21.3953 50.5851 21.206 50.779C20.7708 51.2231 20.3423 51.6761 19.9071 52.1224C19.5152 52.5243 19.4954 53.0009 19.7765 53.5227C20.0575 54.0445 20.8398 54.2288 21.3388 53.9046C21.4464 53.8335 21.5467 53.7517 21.6382 53.6604C22.0486 53.2573 22.4566 52.8512 22.8622 52.4421C23.028 52.2756 23.1976 52.112 23.3502 51.9329C23.6533 51.5754 23.7648 51.1654 23.5916 50.7154C23.4133 50.2506 23.0552 50.0182 22.5643 49.9863C22.5217 49.9834 22.4747 49.9856 22.4182 49.9856Z" fill="#595959"/>
</svg>
