<svg width="81" height="71" viewBox="0 0 81 71" fill="none" xmlns="http://www.w3.org/2000/svg">
<path d="M50.4698 18.5104H9.00807C6.61899 18.5104 4.32774 19.4594 2.63841 21.1488C0.949069 22.8381 0 25.1293 0 27.5184V50.9541C0 53.3432 0.949069 55.6345 2.63841 57.3238C4.32774 59.0131 6.61899 59.9622 9.00807 59.9622H16.4122V70.462L27.1218 59.9622H50.4698C52.8589 59.9622 55.1501 59.0131 56.8394 57.3238C58.5288 55.6345 59.4778 53.3432 59.4778 50.9541V27.5184C59.4778 25.1293 58.5288 22.8381 56.8394 21.1488C55.1501 19.4594 52.8589 18.5104 50.4698 18.5104ZM49.9718 48.9414C49.9718 49.8772 49.4897 50.3142 48.4349 50.3142C43.3311 50.3142 38.2272 50.3142 33.1233 50.3142H29.5387C23.2746 50.3142 17.0106 50.3142 10.747 50.3142C9.4855 50.3142 9.03246 49.907 9.03399 48.7942C9.03399 48.2695 9.03399 47.7448 9.03399 47.22C9.03933 46.1523 9.4878 45.7397 10.67 45.7397C20.7175 45.7397 30.7649 45.7397 40.8119 45.7397C43.3456 45.7397 45.8797 45.7397 48.4143 45.7397C49.5164 45.7397 49.9634 46.1385 49.971 47.1285C49.974 47.7303 49.9733 48.3351 49.9725 48.9391L49.9718 48.9414ZM49.9718 39.8403C49.9718 40.7555 49.4935 41.1864 48.4708 41.1872H29.5082C23.2232 41.1872 16.9379 41.1872 10.6524 41.1872C9.49314 41.1872 9.03172 40.77 9.03172 39.7381C9.03172 39.1661 9.03172 38.5941 9.03172 38.0205C9.04087 37.0664 9.53964 36.6142 10.6059 36.6134C17.2305 36.6099 23.855 36.6086 30.4791 36.6096H48.3175C49.5126 36.6096 49.9603 37.0039 49.9679 38.0716C49.9735 38.6609 49.9751 39.2497 49.9725 39.838L49.9718 39.8403ZM49.9718 30.891C49.9573 31.566 49.5141 31.987 48.7621 32.0609C48.6027 32.077 48.441 32.0731 48.2809 32.0731C35.748 32.0731 23.2145 32.0731 10.6806 32.0731C9.48625 32.0731 9.03246 31.6613 9.03399 30.5936C9.03399 30.0208 9.02941 29.4495 9.03399 28.8752C9.04619 27.9463 9.53584 27.5108 10.5861 27.51C16.9062 27.51 23.2265 27.51 29.5471 27.51C35.796 27.51 42.0447 27.51 48.2931 27.51C49.5546 27.51 49.9626 27.8685 49.971 28.9835C49.9748 29.6181 49.9832 30.2526 49.9687 30.8887L49.9718 30.891Z" fill="#595959"/>
<path d="M71.6952 0H30.2328C29.0498 -4.24025e-09 27.8783 0.233037 26.7854 0.685781C25.6924 1.13853 24.6993 1.80211 23.8628 2.63867C23.0264 3.47522 22.3628 4.46835 21.9102 5.56135C21.4575 6.65434 21.2246 7.8258 21.2247 9.00882V16.3817H51.5192C54.1943 16.3823 56.7597 17.4454 58.651 19.3372C60.5424 21.229 61.6049 23.7946 61.6049 26.4697V41.4526H61.6179V45.7404L67.9108 51.9105V41.4526H71.693C74.0822 41.4526 76.3737 40.5034 78.0631 38.8139C79.7526 37.1245 80.7018 34.833 80.7018 32.4438V9.00882C80.702 6.61987 79.7532 4.32866 78.0642 2.63921C76.3752 0.949749 74.0842 0.000404521 71.6952 0Z" fill="#595959"/>
</svg>
