<svg width="29" height="29" viewBox="0 0 29 29" fill="none" xmlns="http://www.w3.org/2000/svg">
<g clip-path="url(#clip0_161_248)">
<path d="M22.5678 0H6.42967C5.5851 -6.68153e-08 4.7488 0.166374 3.96855 0.489655C3.1883 0.812936 2.47939 1.28681 1.8823 1.88413C1.28522 2.48145 0.811658 3.19056 0.488688 3.97094C0.165717 4.75132 -0.000335438 5.58763 5.08731e-07 6.4322V22.5678C-0.000335438 23.4123 0.165717 24.2487 0.488688 25.0291C0.811658 25.8095 1.28522 26.5186 1.8823 27.1159C2.47939 27.7132 3.1883 28.187 3.96855 28.5103C4.7488 28.8336 5.5851 29 6.42967 29H22.5678C24.2733 28.9993 25.9087 28.3214 27.1144 27.1152C28.3201 25.909 28.9974 24.2733 28.9974 22.5678V6.4322C28.9974 4.72671 28.3201 3.09108 27.1144 1.88488C25.9087 0.678675 24.2733 0.000678127 22.5678 0ZM24.913 21.3529C24.8121 21.3652 24.7104 21.3712 24.6087 21.3709C23.8414 21.3709 23.0895 21.3709 22.3299 21.3709C22.1356 21.3804 21.9415 21.349 21.76 21.279C21.5786 21.209 21.4138 21.1017 21.2762 20.9642C20.9744 20.6624 20.6829 20.3478 20.3964 20.0333C19.8077 19.3593 19.1654 18.734 18.4757 18.1637C18.1678 17.8996 17.8232 17.6816 17.4527 17.5166C17.229 17.4263 16.9847 17.3997 16.7468 17.4399C16.6725 17.4479 16.6025 17.4792 16.547 17.5292C16.4914 17.5793 16.4531 17.6456 16.4373 17.7187C16.4005 17.8512 16.3799 17.9878 16.3759 18.1253C16.3759 18.8644 16.3759 19.6036 16.3759 20.3453C16.3759 20.4425 16.3759 20.5422 16.3759 20.6394C16.3695 20.7601 16.3281 20.8763 16.2568 20.9739C16.1855 21.0715 16.0874 21.1464 15.9744 21.1893C15.7201 21.29 15.4499 21.3445 15.1765 21.3504C13.6851 21.4427 12.2002 21.0864 10.913 20.3274C9.56186 19.5646 8.39253 18.5175 7.48594 17.2583C6.35105 15.7406 5.3717 14.1127 4.56267 12.399C4.14596 11.5283 3.8087 10.6218 3.55499 9.69051C3.5064 9.49869 3.47059 9.30432 3.4399 9.10994C3.34527 8.53705 3.59592 8.23272 4.17904 8.2276C5.0307 8.2276 5.88236 8.2276 6.73658 8.2276C6.78877 8.22921 6.84083 8.23349 6.89259 8.2404C7.01832 8.24863 7.1401 8.2877 7.24715 8.35417C7.35421 8.42063 7.44323 8.51243 7.50639 8.62147C7.6173 8.81475 7.7106 9.01765 7.78517 9.22764C8.3191 10.7744 9.02063 12.258 9.87724 13.6521C10.2065 14.2076 10.5997 14.7226 11.0486 15.1867C11.1866 15.3131 11.3336 15.4294 11.4885 15.5345C11.5428 15.5716 11.6035 15.5985 11.6675 15.6138C11.7188 15.6342 11.774 15.6425 11.829 15.6381C11.884 15.6338 11.9373 15.6169 11.9847 15.5887C12.0321 15.5606 12.0725 15.5219 12.1026 15.4757C12.1328 15.4295 12.1519 15.377 12.1586 15.3222C12.1941 15.1454 12.213 14.9656 12.2148 14.7852C12.2148 13.5806 12.2148 12.3734 12.2148 11.1662C12.224 10.5102 11.993 9.87341 11.5652 9.37594C11.4933 9.29506 11.4267 9.20963 11.3657 9.12018C11.3044 9.03553 11.2679 8.93551 11.2603 8.83127C11.2527 8.72703 11.2742 8.62267 11.3226 8.53C11.3709 8.43732 11.4441 8.35994 11.5339 8.30653C11.6238 8.25311 11.7267 8.22579 11.8312 8.2276H15.6189C16.1304 8.2276 16.3274 8.41941 16.3478 8.92325C16.3632 9.30688 16.3478 9.69051 16.3478 10.0767V11.4681C16.3478 12.266 16.3478 13.0639 16.3478 13.8644C16.3455 14.0115 16.3653 14.1581 16.4067 14.2992C16.4155 14.3597 16.439 14.417 16.4752 14.4662C16.5114 14.5155 16.559 14.5551 16.6141 14.5816C16.6691 14.6081 16.7298 14.6207 16.7909 14.6183C16.8519 14.6159 16.9114 14.5985 16.9642 14.5678C17.106 14.5075 17.2386 14.4274 17.3581 14.3299C17.8596 13.904 18.2979 13.4088 18.6599 12.8593C19.5064 11.6427 20.2262 10.3426 20.8082 8.9795C20.8261 8.94114 20.8414 8.90023 20.8593 8.86187C20.9347 8.67189 21.0667 8.50965 21.2373 8.39713C21.4079 8.2846 21.609 8.22722 21.8133 8.23272C22.6752 8.23272 23.5345 8.23272 24.3964 8.23272C24.4759 8.23481 24.5548 8.246 24.6317 8.266C24.7085 8.27411 24.7826 8.29896 24.8487 8.33887C24.9148 8.37878 24.9713 8.43273 25.0143 8.49691C25.0572 8.56108 25.0855 8.63393 25.0972 8.71026C25.1089 8.78659 25.1036 8.86453 25.0818 8.93861C25.0064 9.30533 24.8807 9.65993 24.7084 9.99234C24.2399 10.9225 23.7129 11.822 23.1304 12.6854C22.7033 13.3402 22.2583 13.9821 21.8235 14.6317C21.7446 14.7492 21.6729 14.8713 21.6087 14.9974C21.5627 15.0821 21.5403 15.1776 21.5439 15.2739C21.5475 15.3702 21.577 15.4638 21.6292 15.5448C21.7028 15.6632 21.7886 15.7738 21.8849 15.8747C22.5473 16.5883 23.2251 17.2864 23.8798 18.0051C24.3709 18.5324 24.8095 19.1063 25.1893 19.7187C25.3597 19.9653 25.4788 20.2436 25.5396 20.5371C25.5636 20.6329 25.5655 20.7329 25.5453 20.8296C25.5251 20.9262 25.4833 21.0171 25.4231 21.0953C25.3628 21.1735 25.2856 21.2371 25.1973 21.2813C25.109 21.3254 25.0118 21.3491 24.913 21.3504V21.3529Z" fill="white"/>
</g>
<defs>
<clipPath id="clip0_161_248">
<rect width="29" height="29" fill="white"/>
</clipPath>
</defs>
</svg>
