<svg width="29" height="29" viewBox="0 0 29 29" fill="none" xmlns="http://www.w3.org/2000/svg">
<g clip-path="url(#clip0_161_258)">
<path d="M13.5243 22.2456V19.665H11.33C12.0768 20.5474 12.7136 21.2942 13.5243 22.2456Z" fill="white"/>
<path d="M10.4322 15.5012C10.5831 16.3784 10.7366 17.2556 10.8977 18.184H13.5269V15.0127H10.3708C10.3939 15.202 10.4067 15.3528 10.4322 15.5012Z" fill="white"/>
<path d="M13.578 8.92335V6.55762L11.5908 8.92335H13.578Z" fill="white"/>
<path d="M20.7417 8.86692C19.7038 7.49697 18.203 6.55149 16.5192 6.20703C17.6675 7.83619 18.3683 9.7595 20.7417 8.86692Z" fill="white"/>
<path d="M11.7007 10.2453C11.5202 10.2909 11.3524 10.377 11.2102 10.4971C11.0679 10.6172 10.9549 10.7681 10.8798 10.9384C10.6538 11.8097 10.4745 12.6925 10.3427 13.5829H13.5498V10.2147C12.9156 10.2147 12.2838 10.1354 11.7007 10.2453Z" fill="white"/>
<path d="M11.8926 6.31738C10.266 6.81355 8.98978 7.63447 8.05627 9.02066C10.2865 9.53217 11.1688 8.12812 11.8926 6.31738Z" fill="white"/>
<path d="M9.7008 10.4885C7.38111 9.54737 6.32226 10.4732 6.1637 13.5883H9.11767C9.31716 12.532 9.50898 11.5064 9.7008 10.4885Z" fill="white"/>
<path d="M7.98462 19.7699C8.98462 20.9847 10.1151 21.9643 11.7928 22.3914C10.4552 19.5909 9.82605 19.1714 7.98462 19.7699Z" fill="white"/>
<path d="M9.11251 15.0181H6.04346C6.84908 18.6268 6.65981 18.4784 9.67516 18.1843C9.49101 17.1331 9.30433 16.0846 9.11251 15.0181Z" fill="white"/>
<path d="M19.1329 18.2991C19.8814 18.3317 20.6311 18.3223 21.3785 18.271C21.5365 18.238 21.6849 18.1695 21.8125 18.0707C21.9401 17.9719 22.0436 17.8454 22.115 17.7007C22.4347 16.849 22.6496 15.9539 22.9232 15.0229H19.7544C19.5652 16.0843 19.3554 17.1073 19.1329 18.2991Z" fill="white"/>
<path d="M19.0537 10.3015C19.3095 11.4806 19.5269 12.5241 19.7545 13.5906H22.89C22.5985 12.5829 22.3529 11.6647 22.0537 10.7645C22.0117 10.6569 21.9448 10.5608 21.8586 10.4839C21.7724 10.407 21.6692 10.3515 21.5575 10.322C20.7673 10.2734 19.9719 10.3015 19.0537 10.3015Z" fill="white"/>
<path d="M16.6957 22.4374C18.1535 22.353 20.0665 21.0666 20.8056 19.6727C18.376 19.3274 18.6036 19.4093 16.6957 22.4374Z" fill="white"/>
<path d="M22.5678 5.09193e-07H6.42967C5.58522 -0.000335591 4.74899 0.165717 3.96875 0.488719C3.18852 0.811721 2.47956 1.28533 1.88244 1.88244C1.28533 2.47956 0.811752 3.18846 0.48875 3.96869C0.165748 4.74893 -0.000335591 5.58519 5.09098e-07 6.42964V22.5678C5.09098e-07 24.273 0.677396 25.9084 1.88319 27.1142C3.08899 28.32 4.72442 28.9974 6.42967 28.9974H22.5678C24.2728 28.9967 25.9078 28.3191 27.1135 27.1135C28.3191 25.9078 28.9968 24.2728 28.9974 22.5678V6.42964C28.9974 4.72439 28.32 3.08899 27.1142 1.88319C25.9084 0.677396 24.273 5.09193e-07 22.5678 5.09193e-07ZM14.399 24.0409C9.23786 24.0409 4.88746 19.6087 4.8849 14.3452C4.89771 11.807 5.91278 9.37651 7.70907 7.5831C9.50536 5.78968 11.9374 4.77853 14.4757 4.7698C19.7033 4.7698 23.9795 9.11762 23.9821 14.422C23.9847 19.6394 19.6087 24.0307 14.399 24.0332V24.0409Z" fill="white"/>
<path d="M15.0026 6.5293V8.87717H17.2788C16.4808 8.05108 15.8466 7.38863 15.0026 6.5293Z" fill="white"/>
<path d="M14.9617 19.6777V21.9795L17.0716 19.6777H14.9617Z" fill="white"/>
<path d="M17.821 10.4092H14.9617V13.5754H18.486L17.821 10.4092Z" fill="white"/>
<path d="M18.3223 15.0356H14.9617V18.2096C17.8415 18.6418 18.6778 17.8464 18.3223 15.0356Z" fill="white"/>
</g>
<defs>
<clipPath id="clip0_161_258">
<rect width="29" height="29" fill="white"/>
</clipPath>
</defs>
</svg>
