<svg width="28" height="29" viewBox="0 0 28 29" fill="none" xmlns="http://www.w3.org/2000/svg">
<g clip-path="url(#clip0_161_245)">
<path d="M21.7896 0H6.20796C4.56151 0 2.98247 0.677396 1.81825 1.88319C0.654037 3.08899 0 4.72439 0 6.42964V22.5678C0 24.273 0.654037 25.9084 1.81825 27.1142C2.98247 28.32 4.56151 28.9974 6.20796 28.9974H21.7896C23.4358 28.9967 25.0145 28.3191 26.1785 27.1135C27.3426 25.9078 27.9969 24.2728 27.9975 22.5678V6.42964C27.9969 4.72459 27.3426 3.08959 26.1785 1.88394C25.0145 0.678292 23.4358 0.000677816 21.7896 0ZM23.407 14.6931H23.3576C23.3576 16.0102 23.449 17.335 23.3354 18.6394C23.1601 20.67 22.2192 21.5601 20.2364 21.5831C16.1208 21.6291 11.9978 21.6291 7.86736 21.5831C6.0104 21.5626 4.90413 20.4296 4.8745 18.514C4.81771 15.8414 4.82265 13.1688 4.8745 10.4962C4.91154 8.58313 5.83754 7.56523 7.79821 7.49106C11.8134 7.34016 15.8335 7.28132 19.8511 7.28388C21.713 7.28388 23.3255 9.08696 23.3971 11.0614C23.444 12.2711 23.407 13.4834 23.407 14.6931Z" fill="white"/>
<path d="M11.7566 18.1943L17.6016 14.5012L11.7566 10.8823V18.1943Z" fill="white"/>
</g>
<defs>
<clipPath id="clip0_161_245">
<rect width="28" height="29" fill="white"/>
</clipPath>
</defs>
</svg>
