<svg width="63" height="79" viewBox="0 0 63 79" fill="none" xmlns="http://www.w3.org/2000/svg">
<path d="M6.85245 68.9123H2.19756V71.3758H6.30258V73.4604H2.19756V77.8341H0V66.8145H6.85245V68.9123Z" fill="white"/>
<path d="M9.93286 77.8322H7.76562V66.8145H9.93286V77.8322Z" fill="white"/>
<path d="M17.8712 77.8315H15.704V76.7342C15.1023 77.5681 14.4001 77.985 13.5975 77.985C12.839 77.985 12.2468 77.738 11.8208 77.244C11.3948 76.75 11.1838 76.0767 11.1876 75.2239V69.6562H13.3548V74.5834C13.329 74.9649 13.4339 75.3439 13.6525 75.6579C13.7532 75.7836 13.8824 75.8836 14.0295 75.9495C14.1765 76.0154 14.3372 76.0454 14.4981 76.0369C14.6648 76.0448 14.8311 76.0149 14.9845 75.9492C15.1379 75.8836 15.2743 75.7839 15.3836 75.6579C15.6166 75.3501 15.7304 74.9684 15.704 74.5834V69.6562H17.8712V77.8315Z" fill="white"/>
<path d="M21.3949 68.7891H19.1367V66.8145H21.3949V68.7891ZM21.3324 77.8322H19.1765V69.657H21.3419L21.3324 77.8322Z" fill="white"/>
<path d="M29.8504 77.8322H27.6831V76.7047C27.0941 77.5575 26.3565 77.9845 25.4704 77.9857C25.0434 77.9879 24.6215 77.8928 24.2368 77.7076C23.852 77.5224 23.5146 77.252 23.2501 76.9169C22.6446 76.2069 22.3425 75.1905 22.3438 73.8678V73.6233C22.3438 72.3031 22.6434 71.2868 23.2425 70.5742C23.5075 70.2378 23.8461 69.9666 24.2323 69.7813C24.6185 69.596 25.042 69.5017 25.4704 69.5054C26.335 69.5054 27.0726 69.9021 27.6831 70.6955V66.8145H29.8504V77.8322ZM27.7116 73.8375V73.648C27.7408 73.0665 27.5805 72.4913 27.2546 72.0088C27.13 71.8191 26.9602 71.6635 26.7605 71.5557C26.5607 71.448 26.3373 71.3916 26.1103 71.3916C25.8834 71.3916 25.6599 71.448 25.4602 71.5557C25.2604 71.6635 25.0906 71.8191 24.9661 72.0088C24.6395 72.4911 24.4785 73.0663 24.5072 73.648V73.8375C24.4785 74.4191 24.6395 74.9944 24.9661 75.4767C25.0906 75.6663 25.2604 75.822 25.4602 75.9297C25.6599 76.0375 25.8834 76.0939 26.1103 76.0939C26.3373 76.0939 26.5607 76.0375 26.7605 75.9297C26.9602 75.822 27.13 75.6663 27.2546 75.4767C27.5805 74.9941 27.7408 74.4189 27.7116 73.8375Z" fill="white"/>
<path d="M35.3538 74.1562H30.8828V72.0508H35.3538V74.1562Z" fill="white"/>
<path d="M43.1243 77.8322H36.6094V66.8145H38.8069V75.7458H43.1243V77.8322Z" fill="white"/>
<path d="M46.1567 68.7891H43.8984V66.8145H46.1567V68.7891ZM46.096 77.8322H43.9307V69.657H46.0998L46.096 77.8322Z" fill="white"/>
<path d="M54.0934 77.8307H51.9262V72.9036C51.9521 72.5203 51.8442 72.1399 51.6209 71.8272C51.518 71.702 51.3873 71.6025 51.2392 71.5367C51.0911 71.4709 50.9296 71.4406 50.7677 71.4482C50.601 71.4406 50.4349 71.4708 50.2815 71.5364C50.1282 71.602 49.9917 71.7014 49.8822 71.8272C49.6493 72.1358 49.5356 72.5179 49.5618 72.9036V77.8307H47.3945V69.6555H49.5618V70.7527C50.1635 69.9189 50.8656 69.502 51.6683 69.502C52.44 69.502 53.0392 69.7483 53.4601 70.2429C53.8811 70.7375 54.0934 71.4084 54.0934 72.263V77.8307Z" fill="white"/>
<path d="M61.9828 73.8526C61.9828 74.1274 61.9714 74.3662 61.9524 74.5689H57.0681C57.2615 75.6567 57.8519 76.2006 58.8391 76.2006C59.518 76.186 60.1663 75.9152 60.6536 75.4426L61.632 76.7539C61.2744 77.1593 60.8321 77.4814 60.3365 77.6975C59.8408 77.9136 59.3038 78.0184 58.7632 78.0047C58.2498 78.0197 57.739 77.9261 57.2642 77.7302C56.7895 77.5343 56.3615 77.2403 56.0082 76.8676C55.2801 76.1096 54.9167 75.1084 54.918 73.864V73.7105C54.918 72.5015 55.2561 71.5028 55.9324 70.7144C56.2436 70.3359 56.6367 70.0328 57.082 69.828C57.5273 69.6232 58.0133 69.5219 58.5035 69.5319C59.6222 69.5319 60.4817 69.9362 61.0821 70.7447C61.6826 71.5533 61.9828 72.5893 61.9828 73.8526ZM59.8971 73.1192C59.8761 72.6411 59.7261 72.1774 59.4629 71.7775C59.3567 71.6252 59.2147 71.5011 59.0495 71.4162C58.8842 71.3313 58.7006 71.2881 58.5148 71.2905C58.3274 71.2866 58.1418 71.3273 57.9733 71.4094C57.8048 71.4914 57.6583 71.6124 57.5459 71.7624C57.2649 72.1625 57.0984 72.6316 57.0643 73.1192H59.8971Z" fill="white"/>
<path d="M0.132812 0V61.8334H62.0001V0H0.132812ZM13.3864 55.5532H6.60603V29.9284H13.3864V55.5532ZM13.3864 15.888V23.0134H6.60413V6.55117H17.6943C15.055 8.87449 13.3883 12.1946 13.3883 15.888H13.3864ZM21.5244 55.5532V29.9284H29.6264V23.0134H21.5263V15.888C21.5263 13.1706 23.8414 10.9609 26.6855 10.9609H35.3639V45.049C35.3725 47.1345 35.898 49.1853 36.8932 51.0183C37.8885 52.8513 39.3225 54.4094 41.0673 55.5532H21.5244ZM55.3012 49.978H48.3843C47.0834 49.9705 45.8385 49.4475 44.9228 48.5238C44.0072 47.6001 43.4955 46.3511 43.5 45.0509V6.55117H55.3012V49.978Z" fill="white"/>
</svg>
