<svg width="80" height="69" viewBox="0 0 80 69" fill="none" xmlns="http://www.w3.org/2000/svg">
<g clip-path="url(#clip0_161_23)">
<path d="M0 19.8529C0.0179494 19.5736 0.112754 19.3044 0.27421 19.0742C0.45014 18.8381 0.687621 18.6534 0.961418 18.5398C1.23522 18.4262 1.53508 18.388 1.82915 18.4291C2.14182 18.4786 2.40265 18.6651 2.92265 19.0412C3.20795 19.2469 3.4799 19.4701 3.73691 19.7094C3.95594 19.9271 7.39523 23.3189 10.7977 26.6745L12.3577 28.2121C14.4756 30.2963 16.5901 32.3793 18.7013 34.4613C20.8437 36.5729 22.9833 38.6868 25.1201 40.8028L32.2578 47.862C34.0647 49.6525 35.871 51.4425 37.6768 53.2319C39.4023 54.941 41.13 56.6518 42.8599 58.3642C44.3636 59.8567 45.8645 61.3508 47.3626 62.8465C48.4511 63.9354 49.5362 65.0308 50.623 66.1196C50.6826 66.1891 50.7342 66.2649 50.7768 66.3456C50.9714 66.6937 51.0553 67.0915 51.0176 67.4872C50.9961 67.7725 50.9031 68.048 50.7467 68.289C50.4988 68.6432 50.1285 68.896 49.7051 69H18.6912C18.6161 68.981 18.5395 68.9683 18.4622 68.9621C16.6653 68.9489 14.8685 68.9373 13.0717 68.9274C11.6538 68.9274 10.2293 68.9274 8.82145 68.9274C6.77047 68.9175 4.71948 68.9038 2.6685 68.8862C2.30233 68.8862 1.9345 68.8647 1.56833 68.8383C0.668799 68.7724 0.0886142 68.1339 0.0819262 67.1886C0.0702222 65.8177 0.0668774 64.4468 0.0601894 63.0759C0.0601894 61.8699 0.0484846 60.6639 0.0384526 59.458C0.0384526 59.293 0.013376 59.1281 0 58.9516V19.8529ZM44.1741 65.1578L3.89743 25.5164V32.8297C3.93516 32.8343 3.9731 32.8371 4.01112 32.838C4.99927 32.8479 5.98741 32.8627 6.97724 32.8627C7.24843 32.8535 7.5183 32.9039 7.76729 33.0103C8.01628 33.1168 8.23815 33.2765 8.41682 33.478C8.96022 34.0769 9.12241 34.7631 8.79637 35.5105C8.47033 36.2578 7.89014 36.7132 7.01234 36.7049C6.3703 36.7049 5.72827 36.7049 5.08622 36.7049H3.85896C3.88571 38.1451 3.90913 39.5374 3.93421 40.9381C4.72172 40.9628 5.48917 40.981 6.25494 41.014C6.7348 41.0147 7.21387 41.0522 7.68783 41.1262C8.39676 41.2713 8.93348 41.989 8.9502 42.7033C8.97194 43.6536 8.50377 44.3745 7.68449 44.617C7.45445 44.6865 7.21603 44.7253 6.97556 44.7325C6.02754 44.7555 5.07785 44.7606 4.13317 44.7705H3.87902V49.0053H4.06796C4.73676 49.0053 5.40556 49.0053 6.07435 49.0152C6.49402 49.0235 6.91036 49.0433 7.3317 49.0911C7.58866 49.1166 7.8372 49.1956 8.06085 49.323C8.2845 49.4504 8.47814 49.6233 8.62896 49.8301C8.77979 50.0369 8.88434 50.2731 8.93569 50.5228C8.98703 50.7725 8.984 51.0301 8.92679 51.2786C8.74956 52.1645 8.1259 52.6941 7.20965 52.7287C6.5676 52.7518 5.92723 52.7749 5.28685 52.7898C4.84043 52.798 4.39401 52.7898 3.93421 52.7898C3.90913 54.2399 3.88571 55.6323 3.86231 57.0626C4.30706 57.0626 4.71336 57.0626 5.11965 57.0626C5.82691 57.0626 6.5375 57.0412 7.24308 57.0857C8.2212 57.1484 9.00036 58.0904 8.9502 59.0868C8.93347 59.5697 8.72886 60.0277 8.3789 60.3656C8.02893 60.7035 7.56051 60.8954 7.07088 60.9015C6.21649 60.9015 5.36041 60.9147 4.50602 60.9213H3.88906V65.1479H8.13259C8.1386 65.1129 8.1425 65.0777 8.14429 65.0424C8.15599 64.1861 8.16436 63.3283 8.18109 62.4721C8.17569 62.2089 8.19133 61.9458 8.22789 61.6851C8.39509 60.7728 9.30466 60.0635 10.1992 60.1377C10.686 60.1737 11.1424 60.3851 11.4815 60.7315C11.8206 61.078 12.0188 61.5354 12.0384 62.0167C12.0384 62.703 12.0568 63.3877 12.0635 64.0723C12.0635 64.427 12.0635 64.7817 12.0635 65.1215H16.3622C16.3622 65.0407 16.3622 64.9962 16.3622 64.9566C16.3889 63.9486 16.4023 62.9405 16.4524 61.9342C16.4667 61.6325 16.5411 61.3365 16.6715 61.0632C17.0259 60.3571 17.8552 60.0123 18.6779 60.1806C19.0772 60.251 19.4408 60.4522 19.7102 60.7514C19.9795 61.0507 20.1389 61.4307 20.1626 61.8303C20.2111 62.863 20.196 63.8991 20.2094 64.9334C20.2094 65.0093 20.2094 65.0852 20.2094 65.1562H24.5014V64.9714C24.5014 64.2323 24.5014 63.4866 24.5131 62.7558C24.5133 62.3412 24.5525 61.9276 24.6302 61.5202C24.7296 61.105 24.9758 60.7384 25.3246 60.4863C25.6733 60.2341 26.1017 60.1129 26.5329 60.1443C27.506 60.2037 28.1932 60.8042 28.2768 61.733C28.342 62.4539 28.3337 63.1798 28.3504 63.9057C28.3604 64.3049 28.3504 64.7041 28.3504 65.1116L32.6976 65.1776C32.6976 64.0822 32.6976 63.033 32.6976 61.9738C32.7197 61.4695 32.9431 60.9943 33.319 60.6519C33.6948 60.3094 34.1927 60.1276 34.704 60.1459C35.1864 60.1667 35.6433 60.3657 35.984 60.7034C36.3247 61.041 36.5243 61.4928 36.5432 61.9689C36.5799 62.5793 36.5732 63.1946 36.5799 63.8067C36.5799 64.2537 36.5799 64.7008 36.5799 65.1578H44.1741Z" fill="#1FBCDE"/>
<path d="M20.4101 57.8743C18.4455 57.8743 16.4809 57.8743 14.5163 57.8743C14.0147 57.8743 13.4997 57.8248 13.0583 57.5262C12.5082 57.1533 12.3327 56.5941 12.3193 55.9804C12.2976 55.0912 12.3076 54.2003 12.3076 53.3111C12.3076 50.3317 12.3076 47.3517 12.3076 44.3712C12.303 43.9961 12.3435 43.6218 12.428 43.256C12.7406 42.0039 14.3859 41.5469 15.3272 42.4394C16.4006 43.4589 17.474 44.4785 18.5307 45.5129C21.6039 48.522 24.6636 51.5475 27.7435 54.5501C27.9466 54.7415 28.1062 54.9735 28.2115 55.2305C28.3168 55.4875 28.3654 55.7636 28.3542 56.0406C28.343 56.3176 28.2721 56.5891 28.1463 56.837C28.0206 57.0848 27.8427 57.3035 27.6247 57.4783C27.2739 57.7601 26.8312 57.9067 26.3791 57.8908C25.0705 57.8842 23.7608 57.8798 22.4499 57.8776C21.7744 57.8726 21.0922 57.8743 20.4101 57.8743ZM21.5805 54.0254L16.1114 48.649V54.032L21.5805 54.0254Z" fill="#1FBCDE"/>
<path d="M78.1407 38.8033C77.589 38.7621 77.0322 38.7753 76.4788 38.7753H69.2206C68.8953 38.7939 68.5721 38.7121 68.296 38.5411C68.0343 38.3477 67.8436 38.0755 67.7526 37.7657C67.4851 36.9853 64.7297 29.6919 60.9326 19.6186C60.9326 19.6186 60.4176 18.1619 59.7806 16.1146C60.5568 15.1161 60.9766 13.8922 60.9744 12.6337C60.9748 11.6005 60.6922 10.5865 60.1566 9.69872C59.6209 8.81097 58.8521 8.08254 57.9313 7.59048V1.42211C57.9313 1.04452 57.7793 0.682356 57.5087 0.415357C57.2381 0.148358 56.8711 -0.00158691 56.4884 -0.00158691H53.9185C53.536 -0.00115029 53.1692 0.148936 52.8987 0.41584C52.6282 0.682745 52.476 1.04465 52.4756 1.42211V7.54263C51.531 8.02686 50.7393 8.75771 50.1867 9.65546C49.6342 10.5532 49.3421 11.5834 49.3423 12.6337C49.3522 13.1813 49.4314 13.7255 49.578 14.2537C49.8642 15.1754 50.3818 16.0107 51.0828 16.6821C46.5317 28.6674 43.2044 37.4011 43.0021 37.9356C42.9156 38.186 42.7548 38.405 42.5406 38.5642C42.4021 38.6586 42.2448 38.7226 42.0791 38.7522C41.9132 38.7774 41.7454 38.7885 41.5775 38.7852H32.7327C32.3254 38.7803 31.9269 38.9015 31.5931 39.1318C31.2593 39.362 31.007 39.6897 30.8717 40.0688C30.7256 40.451 30.7029 40.8685 30.8068 41.264C30.9107 41.6595 31.136 42.0136 31.4519 42.2777C31.9167 42.667 32.4702 42.7726 33.0604 42.7726C35.6464 42.7726 38.2335 42.7726 40.8218 42.7726H41.0759C40.9405 43.1933 40.8285 43.5876 40.688 43.9687C40.066 45.6514 39.439 47.3319 38.807 49.0103C38.7785 49.0634 38.7699 49.1249 38.7827 49.1838C38.7956 49.2426 38.8291 49.2951 38.8773 49.332C39.9061 50.3317 40.931 51.3347 41.9521 52.341C41.9872 52.3757 42.0273 52.4037 42.0775 52.445C42.1109 52.3658 42.136 52.3064 42.1594 52.2453C43.254 49.3968 44.3497 46.5478 45.4465 43.6982C45.709 43.0168 46.0919 42.7577 46.8309 42.7594C48.6367 42.7594 50.4408 42.7594 52.2449 42.7759C52.6227 42.7759 53.0006 42.8188 53.3902 42.8419V43.0795C53.3902 44.1799 53.3902 45.2819 53.3902 46.379C53.386 46.7982 53.5204 47.2074 53.7729 47.5446C54.0254 47.8818 54.3823 48.1287 54.7896 48.2481C55.1852 48.3912 55.6172 48.4032 56.0202 48.2824C56.4233 48.1615 56.7755 47.9143 57.0234 47.5783C57.3328 47.1691 57.3863 46.6924 57.3963 46.209C57.418 45.1796 57.4264 44.1518 57.4381 43.124C57.4381 43.053 57.4381 42.9821 57.4381 42.8864C57.826 42.8468 58.1955 42.7776 58.565 42.7743C60.3908 42.7578 62.215 42.7594 64.0391 42.7561C64.7514 42.7561 65.0925 42.9855 65.345 43.6404L74.7198 68.0086C74.8168 68.261 74.9155 68.5117 75.0275 68.8004C75.0693 68.6948 75.0977 68.6354 75.1178 68.5744C75.6378 66.9906 76.1461 65.402 76.6828 63.8232C76.952 63.0346 77.0172 62.2708 76.7145 61.4707C74.4328 55.4217 72.1578 49.3727 69.8894 43.3237C69.8242 43.1471 69.7624 42.969 69.6888 42.7644H69.958C72.009 42.7644 74.0611 42.7644 76.1143 42.7644C76.768 42.7644 77.4251 42.7792 78.0789 42.7479C78.5914 42.7208 79.0745 42.503 79.4307 42.1384C79.7869 41.7738 79.9898 41.2894 79.9983 40.783C80.0091 40.2798 79.8214 39.7922 79.4749 39.4229C79.1284 39.0536 78.65 38.8315 78.1407 38.8033ZM55.1575 10.4989C55.4418 10.4989 55.7232 10.5542 55.9858 10.6616C56.2484 10.769 56.487 10.9263 56.6879 11.1248C56.8889 11.3232 57.0482 11.5587 57.1568 11.8179C57.2655 12.0771 57.3213 12.3549 57.321 12.6354C57.321 13.2015 57.0931 13.7445 56.6874 14.1449C56.2816 14.5452 55.7313 14.7701 55.1575 14.7701C54.8725 14.7714 54.5901 14.7172 54.3265 14.6105C54.0628 14.5038 53.8231 14.3467 53.6211 14.1483C53.4191 13.95 53.2589 13.7142 53.1495 13.4546C53.0402 13.1949 52.9839 12.9165 52.9839 12.6354C52.9861 12.068 53.2161 11.5246 53.6235 11.1242C54.0309 10.7238 54.5825 10.4989 55.1575 10.4989ZM63.153 38.7605H57.8193C57.5117 38.7605 57.4849 38.7275 57.4849 38.4206C57.4715 37.3467 57.4598 36.276 57.4381 35.1971C57.413 33.9812 56.5018 33.1003 55.3364 33.1547C54.8257 33.1682 54.3399 33.3756 53.9802 33.7336C53.6205 34.0916 53.4145 34.5726 53.4052 35.0766C53.3852 36.205 53.4052 37.3319 53.3952 38.4603V38.7126H47.463C47.5716 38.4239 47.6753 38.1352 47.7857 37.8481C49.8723 32.4062 51.9595 26.9621 54.0473 21.5158C54.1099 21.3705 54.1831 21.23 54.2663 21.0952C54.487 20.6943 54.8431 20.5359 55.2912 20.5227C55.5513 20.5155 55.8108 20.4952 56.0687 20.4617C56.358 20.427 56.3797 20.4303 56.4817 20.6992C57.0391 22.1642 57.6003 23.6297 58.1654 25.0958C59.8708 29.5401 61.5768 33.984 63.2834 38.4272C63.3202 38.5246 63.3536 38.6236 63.3988 38.7572L63.153 38.7605Z" fill="#1FBCDE"/>
</g>
<defs>
<clipPath id="clip0_161_23">
<rect width="80" height="69" fill="white"/>
</clipPath>
</defs>
</svg>
