<svg width="119" height="130" viewBox="0 0 119 130" fill="none" xmlns="http://www.w3.org/2000/svg">
<path d="M118.317 25.7922C118.317 12.0943 107.251 0.9897 93.6013 0.9897C79.9514 0.9897 68.8867 12.0943 68.8867 25.7922C68.8816 29.4801 69.6993 33.1224 71.28 36.4518H80.8808C78.7959 33.9457 77.4919 30.8795 77.1312 27.6351C76.7705 24.3906 77.3691 21.1114 78.8524 18.2059C80.3356 15.3005 82.638 12.8972 85.4727 11.2955C88.3074 9.6938 91.5491 8.96453 94.7938 9.19853C98.0386 9.43252 101.143 10.6194 103.72 12.6114C106.298 14.6034 108.234 17.3123 109.288 20.4008C110.342 23.4892 110.467 26.8207 109.648 29.98C108.829 33.1394 107.101 35.987 104.681 38.1681C105.542 38.8757 106.235 39.7666 106.711 40.7761C107.186 41.7857 107.433 42.8887 107.431 44.0054V46.3535C110.785 44.0835 113.532 41.0212 115.431 37.4358C117.329 33.8505 118.32 29.8521 118.317 25.7922Z" fill="#C3C3C3"/>
<path d="M111.168 8.74702L94.1243 25.8508L88.1758 19.8804C87.3165 19.0397 86.1617 18.5725 84.9616 18.5802C83.7615 18.5878 82.6128 19.0696 81.7642 19.9212C80.9155 20.7728 80.4354 21.9256 80.4278 23.1299C80.4202 24.3342 80.8857 25.4931 81.7235 26.3554L90.4037 35.0662C90.5415 35.2564 90.6941 35.4355 90.8601 35.6016C91.7159 36.4602 92.8765 36.9425 94.0867 36.9425C95.2968 36.9425 96.4575 36.4602 97.3133 35.6016L117.62 15.222C118.053 14.7988 118.397 14.2937 118.634 13.7359C118.87 13.1781 118.994 12.5787 118.998 11.9725C119.002 11.3663 118.886 10.7654 118.656 10.2046C118.427 9.64383 118.089 9.13434 117.662 8.7057C117.234 8.27705 116.727 7.93778 116.168 7.70757C115.609 7.47737 115.01 7.36082 114.406 7.36466C113.802 7.36851 113.205 7.49268 112.649 7.72998C112.093 7.96728 111.59 8.31297 111.168 8.74702Z" fill="#75A6F1"/>
<path d="M53.99 105.968C49.0436 105.962 44.0972 105.962 39.1507 105.968V105.974C34.204 105.974 29.2571 105.956 24.3104 105.983C22.3262 105.994 21.6645 106.976 21.7178 109.632C21.7494 111.265 22.0748 111.498 24.1558 111.523C32.149 111.616 40.1456 111.31 48.1366 111.698C49.3265 111.763 50.5198 111.686 51.6924 111.468C53.0867 111.203 54.0499 110.392 54.6126 109.07C54.7911 108.649 54.9054 108.199 55.0915 107.783C55.8066 106.186 55.6868 105.97 53.99 105.968Z" fill="#C3C3C3"/>
<path d="M104.816 46.4767C104.58 42.7627 102.773 40.7432 99.1989 40.1627C98.3168 40.0164 97.4248 39.9414 96.5312 39.9386C83.4617 39.9446 70.3922 39.9446 57.3226 39.9386V39.9285C45.1093 39.9285 32.8959 39.9311 20.6826 39.9363C18.9357 39.9363 17.1877 39.8534 15.443 40.1291C11.3419 40.7769 9.43395 43.016 9.43177 47.3015C9.42379 63.0592 9.42088 78.8172 9.42305 94.5756C9.42305 95.1102 9.40564 95.6582 9.50468 96.1794C9.80182 97.7382 11.4834 98.3658 12.7154 97.4032C13.1976 97.0277 13.5318 96.5156 13.8768 96.0147C14.9979 94.3919 15.9676 92.6525 17.3183 91.2068C18.7702 89.6524 19.3014 87.8101 19.2938 85.6561C19.2492 73.6557 19.2709 61.6553 19.2742 49.655C19.2634 49.0417 19.2838 48.4282 19.3352 47.8171C19.5202 46.034 19.9142 45.6485 21.6306 45.5017C21.9266 45.477 22.226 45.4748 22.5231 45.4748C45.0893 45.4748 67.6556 45.4748 90.2218 45.4748C93.2388 45.4748 93.6666 45.932 93.6666 48.9803C93.6666 66.9233 93.6666 84.8667 93.6666 102.81C93.6666 103.27 93.672 103.732 93.6306 104.189C93.5403 105.204 92.9776 105.776 92.0089 105.945C89.8441 106.324 89.843 106.327 90.1009 108.635C90.139 108.978 90.1739 109.322 90.2435 109.658C90.4775 110.779 91.1556 111.425 92.2647 111.451C94.7931 111.508 97.3269 111.683 99.8433 111.243C102.496 110.778 104.074 109.211 104.657 106.494C104.836 105.66 104.842 104.821 104.842 103.978C104.842 85.2687 104.842 66.5584 104.842 47.8473C104.837 47.3968 104.846 46.9384 104.816 46.4767Z" fill="#C3C3C3"/>
<path d="M26.5469 93.3777C26.6558 91.5252 25.6261 89.2984 24.1524 89.0148C23.8009 88.9465 23.5114 89.0081 23.1729 89.0754C21.9539 89.3141 21.1376 90.1019 20.8415 90.3922C18.3937 92.7994 15.7924 100.225 12.352 100.755C10.6933 101.011 8.91154 99.6569 8.10721 98.4342C7.53035 97.5601 7.22125 96.6882 7.20927 95.312C7.19512 93.7789 7.20927 92.2458 7.20927 90.7172H7.20385C7.20385 88.9924 7.21147 87.2665 7.1984 85.5418C7.1984 85.052 7.25281 84.4861 6.69664 84.2474C6.11217 83.9964 5.70183 84.3976 5.32851 84.7786C2.57811 87.5915 0.676678 90.8998 0.300091 94.9164C-0.362747 101.97 0.16186 108.999 1.00428 116.009C1.07807 116.357 1.20325 116.691 1.37545 117C3.91796 121.893 15.5323 121.665 17.9779 117.753C18.3022 117.202 18.5759 116.622 18.7953 116.019C19.5072 112.937 19.4908 111.322 19.4821 110.321C19.4615 107.669 20.6086 106.365 26.0952 95.1394C26.3598 94.5896 26.5134 93.9903 26.5469 93.3777Z" fill="#C3C3C3"/>
<path d="M86.5085 104.374C86.0318 103.216 85.5409 102.772 85.0729 102.408C82.3628 100.299 76.5834 101.337 72.7598 102.024C72.4148 102.085 71.5136 102.257 70.7854 101.75C70.3435 101.443 70.0845 100.868 69.7667 99.8833C68.8895 97.1555 68.0165 94.4255 67.1208 91.7022C66.8672 90.9323 66.4732 90.2386 65.7777 89.7768C64.6 88.9924 63.1525 89.138 61.8355 90.1747C60.7972 90.9917 60.5196 92.2928 61.0409 93.9414C62.0423 97.1028 63.467 101.604 63.5356 101.81C64.7883 105.527 64.1886 105.258 65.5339 109.094C66.1467 110.843 66.7649 112.305 66.4144 112.539C66.0345 112.792 64.7121 111.485 64.0362 110.817C63.0839 109.874 63.1601 109.713 62.4668 109.146C61.9356 108.713 60.9343 107.972 59.5368 107.83C57.9738 107.671 56.8223 108.431 56.2237 109.976C55.9762 110.564 55.9205 111.218 56.0648 111.841C56.3293 112.914 57.1379 113.466 57.3447 113.598L68.0873 126.593C69.1817 127.756 70.4879 128.687 71.9315 129.331C71.9315 129.331 77.0742 131.593 87.4957 126.218C87.9386 125.994 88.7027 125.557 89.1958 124.686C89.5223 124.108 89.6714 123.419 89.6583 122.578C89.6268 120.623 89.568 118.672 89.4015 116.725C89.0347 112.463 88.1291 108.323 86.5085 104.374Z" fill="#C3C3C3"/>
<path d="M82.6557 69.7198C82.6459 68.1509 82.0767 67.5704 80.5562 67.5704H57.8771C49.455 67.5704 41.0329 67.5704 32.6109 67.5704C31.2558 67.5704 30.6213 68.2428 30.6093 69.6392C30.6028 70.4797 30.6093 71.3202 30.6093 72.163C30.6093 73.6759 31.1949 74.2923 32.6697 74.2923C40.6607 74.2923 48.6518 74.2923 56.6429 74.2923H80.7521C82.0527 74.2923 82.6579 73.6635 82.6601 72.3142C82.6608 71.4491 82.6593 70.5843 82.6557 69.7198Z" fill="#C3C3C3"/>
<path d="M82.6551 56.359C82.6453 54.7205 82.1261 54.1949 80.5218 54.1938H56.6858C48.6504 54.1938 40.6147 54.1938 32.5787 54.1938C31.2432 54.1938 30.6196 54.8348 30.6054 56.1998C30.5967 57.0415 30.6054 57.8809 30.6054 58.7236C30.6054 60.2926 31.1812 60.8989 32.6995 60.8989H80.5022C80.7066 60.9047 80.9112 60.8987 81.115 60.881C82.0695 60.7689 82.6333 60.1537 82.6529 59.1618C82.6714 58.2294 82.6605 57.2936 82.6551 56.359Z" fill="#C3C3C3"/>
<path d="M78.1629 81.0814H71.824C70.219 81.0814 68.918 82.4211 68.918 84.0737V88.2886C68.918 89.9412 70.219 91.2808 71.824 91.2808H78.1629C79.7678 91.2808 81.0689 89.9412 81.0689 88.2886V84.0737C81.0689 82.4211 79.7678 81.0814 78.1629 81.0814Z" fill="#C3C3C3"/>
<path d="M56.1068 81.3537H33.7869C32.1819 81.3537 30.8809 82.6934 30.8809 84.346V88.5609C30.8809 90.2135 32.1819 91.5531 33.7869 91.5531H56.1068C57.7117 91.5531 59.0128 90.2135 59.0128 88.5609V84.346C59.0128 82.6934 57.7117 81.3537 56.1068 81.3537Z" fill="#84B5FF"/>
</svg>
