<svg width="141" height="35" viewBox="0 0 141 35" fill="none" xmlns="http://www.w3.org/2000/svg">
<g clip-path="url(#clip0_161_138)">
<path d="M51.8091 11.6101H44.2765V15.6118H50.9206V18.968H44.2765V26.0526H40.7228V8.20834H51.8091V11.6101Z" fill="white"/>
<path d="M56.7903 26.0526H53.2898V8.20834H56.7903V26.0526Z" fill="white"/>
<path d="M69.6306 26.0526H66.1225V24.2758C65.7666 24.8674 65.2696 25.3616 64.6759 25.7141C64.0823 26.0665 63.4105 26.2664 62.7207 26.2956C62.1821 26.3268 61.6435 26.2358 61.1451 26.0293C60.6467 25.8229 60.2015 25.5063 59.8428 25.1035C59.1153 24.173 58.751 23.0099 58.8177 21.8307V12.8175H62.3182V20.7905C62.2804 21.4106 62.4515 22.0254 62.8042 22.5369C62.9683 22.7379 63.1778 22.8971 63.4154 23.0014C63.653 23.1056 63.9119 23.1521 64.171 23.1368C64.4398 23.1505 64.7083 23.1037 64.9567 22.9999C65.2051 22.8961 65.427 22.7379 65.6061 22.5369C65.9791 22.034 66.1621 21.4153 66.1225 20.7905V12.8175H69.6306V26.0526Z" fill="white"/>
<path d="M75.3331 11.4127H71.6808V8.20834H75.3331V11.4127ZM75.2344 26.0526H71.7263V12.8175H75.2344V26.0526Z" fill="white"/>
<path d="M89.0087 26.0526H85.5006V24.2226C85.1316 24.8453 84.609 25.3629 83.9828 25.7258C83.3566 26.0888 82.6478 26.2849 81.9241 26.2956C81.234 26.2991 80.5521 26.1457 79.9299 25.8471C79.3077 25.5485 78.7615 25.1125 78.3325 24.5719C77.2677 23.1554 76.7452 21.4046 76.8594 19.6363V19.2414C76.7437 17.4729 77.2604 15.7209 78.3173 14.2982C78.7479 13.7556 79.2965 13.3183 79.9215 13.0196C80.5465 12.7209 81.2314 12.5687 81.9241 12.5745C82.6309 12.5831 83.3251 12.7622 83.9478 13.0967C84.5705 13.4311 85.1032 13.9111 85.5006 14.4956V8.20834H89.0087V26.0526ZM85.5537 19.5983V19.3022C85.5956 18.3597 85.3291 17.4293 84.7944 16.6521C84.5924 16.345 84.3175 16.0927 83.9941 15.9178C83.6708 15.7429 83.3092 15.6508 82.9416 15.6498C82.5752 15.6514 82.2149 15.7437 81.8929 15.9187C81.5709 16.0936 81.2972 16.3456 81.0965 16.6521C80.5618 17.4293 80.2952 18.3597 80.3371 19.3022V19.5983C80.2963 20.543 80.5627 21.4754 81.0965 22.2559C81.2991 22.5601 81.5733 22.8099 81.895 22.9833C82.2167 23.1568 82.5761 23.2486 82.9416 23.2507C83.3084 23.2498 83.6693 23.1586 83.9925 22.9851C84.3156 22.8116 84.591 22.5612 84.7944 22.2559C85.3281 21.4754 85.5945 20.543 85.5537 19.5983Z" fill="white"/>
<path d="M97.9232 20.0995H90.7096V16.6977H97.946L97.9232 20.0995Z" fill="white"/>
<path d="M110.452 26.0526H99.943V8.20834H103.497V22.6356H110.452V26.0526Z" fill="white"/>
<path d="M115.395 11.4127H111.743V8.20834H115.395V11.4127ZM115.297 26.0526H111.796V12.8175H115.297V26.0526Z" fill="white"/>
<path d="M128.236 26.0526H124.728V18.0796C124.772 17.4601 124.597 16.8447 124.234 16.3408C124.068 16.1377 123.856 15.9768 123.616 15.8712C123.376 15.7656 123.114 15.7184 122.852 15.7333C122.583 15.7183 122.315 15.7653 122.067 15.8706C121.82 15.976 121.6 16.1368 121.424 16.3408C121.044 16.8375 120.858 17.4556 120.901 18.0796V26.0526H117.4V12.8175H120.901V14.5943C121.258 14.0021 121.756 13.5076 122.351 13.1552C122.946 12.8027 123.619 12.6032 124.31 12.5745C124.852 12.542 125.394 12.6324 125.897 12.8388C126.399 13.0452 126.848 13.3624 127.211 13.7667C127.937 14.6977 128.301 15.8604 128.236 17.0394V26.0526Z" fill="white"/>
<path d="M141 19.5983C141.004 19.9863 140.986 20.3741 140.947 20.7601H133.05C133.364 22.5217 134.318 23.4026 135.913 23.4026C137.014 23.3775 138.064 22.9351 138.851 22.1649L140.431 24.291C139.853 24.9483 139.138 25.4707 138.336 25.821C137.535 26.1714 136.666 26.3412 135.791 26.3184C134.959 26.3408 134.133 26.1873 133.365 25.868C132.596 25.5487 131.904 25.0708 131.334 24.4656C130.734 23.8103 130.269 23.0431 129.965 22.208C129.661 21.3728 129.525 20.4861 129.565 19.5983V19.3553C129.496 17.5901 130.083 15.8619 131.212 14.5032C131.715 13.8906 132.349 13.4001 133.069 13.0686C133.788 12.7371 134.574 12.5734 135.366 12.5897C136.169 12.5474 136.971 12.7041 137.699 13.0458C138.428 13.3876 139.061 13.9038 139.542 14.5488C140.565 16.0284 141.077 17.8013 141 19.5983ZM137.613 18.4138C137.58 17.6402 137.339 16.8898 136.915 16.2421C136.741 16.0027 136.513 15.8087 136.248 15.6765C135.984 15.5443 135.692 15.4778 135.396 15.4827C135.094 15.4768 134.795 15.5425 134.523 15.6745C134.251 15.8065 134.014 16.001 133.832 16.2421C133.384 16.8911 133.122 17.6497 133.073 18.4365L137.613 18.4138Z" fill="white"/>
<path d="M-3.05176e-05 0V34.4052H34.3977V0H-3.05176e-05ZM7.36548 30.9047H3.56883V16.6521H7.36548V30.9047ZM7.36548 8.8386V12.8023H3.56883V3.65238H9.73459C8.99344 4.29851 8.39873 5.09538 7.99017 5.98973C7.58162 6.88409 7.36865 7.85535 7.36548 8.8386ZM11.9215 30.9047V16.6521H16.4319V12.8023H11.8911V8.8386C11.911 8.0954 12.2239 7.3902 12.7615 6.87672C13.2992 6.36325 14.018 6.08312 14.7613 6.09742H19.5907V25.0807C19.5944 26.2399 19.8856 27.3802 20.4382 28.3992C20.9908 29.4183 21.7876 30.2844 22.7571 30.9199L11.9215 30.9047ZM30.7073 27.8067H26.8575C26.4995 27.8047 26.1454 27.7322 25.8154 27.5934C25.4855 27.4545 25.1861 27.2521 24.9343 26.9975C24.6826 26.743 24.4835 26.4413 24.3484 26.1098C24.2132 25.7783 24.1447 25.4235 24.1467 25.0655V3.65238H30.7073V27.8067Z" fill="white"/>
</g>
<defs>
<clipPath id="clip0_161_138">
<rect width="141" height="34.4052" fill="white"/>
</clipPath>
</defs>
</svg>
