<svg width="40" height="40" viewBox="0 0 40 40" fill="none" xmlns="http://www.w3.org/2000/svg">
<path d="M0 0V40H40V0H0ZM8.56929 35.9372H4.18458V19.3609H8.56929V35.9372ZM8.56929 10.278V14.8881H4.18361V4.23785H11.3548C9.64831 5.74039 8.57026 7.88881 8.57026 10.278H8.56929ZM13.831 35.9372V19.3599H19.0684V14.8881H13.831V10.278C13.831 8.51922 15.3277 7.08727 17.1666 7.08727H22.7744V29.14C22.7744 31.9613 24.2382 34.4578 26.462 35.9352L13.831 35.9372ZM35.6694 32.3316H31.1967C30.3551 32.3265 29.5499 31.9877 28.9579 31.3895C28.3659 30.7912 28.0354 29.9826 28.039 29.1409V4.23785H35.6694V32.3316Z" fill="black"/>
</svg>
