<svg width="32" height="32" viewBox="0 0 32 32" fill="none" xmlns="http://www.w3.org/2000/svg">
<path d="M0 0V31.9651H31.9581V0H0ZM6.84313 28.7129H3.31575V15.4711H6.84313V28.7129ZM6.84313 8.21175V11.8943H3.31575V3.39334H9.04422C8.35563 3.99365 7.8031 4.734 7.42352 5.56493C7.04395 6.39586 6.84608 7.29823 6.84313 8.21175ZM11.076 28.7129V15.4711H15.2665V11.8943H11.0478V8.21175C11.0663 7.52126 11.357 6.86607 11.8565 6.38901C12.356 5.91195 13.0239 5.6517 13.7145 5.66498H18.2013V23.3019C18.2048 24.3789 18.4753 25.4383 18.9887 26.3851C19.5021 27.3319 20.2424 28.1366 21.1432 28.727L11.076 28.7129ZM28.5295 25.8346H24.9527C24.6201 25.8327 24.2911 25.7654 23.9846 25.6364C23.678 25.5074 23.3999 25.3193 23.166 25.0828C22.9321 24.8463 22.7471 24.5661 22.6215 24.2581C22.496 23.9501 22.4323 23.6204 22.4342 23.2878V3.39334H28.5295V25.8346Z" fill="white"/>
</svg>
