<svg width="84" height="84" viewBox="0 0 84 84" fill="none" xmlns="http://www.w3.org/2000/svg">
<circle cx="42" cy="42" r="42" fill="#595959"/>
<mask id="mask0_168_296" style="mask-type:alpha" maskUnits="userSpaceOnUse" x="0" y="0" width="84" height="84">
<circle cx="42" cy="42" r="42" fill="#595959"/>
</mask>
<g mask="url(#mask0_168_296)">
<path d="M42.3956 56.4839C45.6815 56.4839 48.9699 56.4143 52.2533 56.501C56.4548 56.6121 60.3229 57.9248 63.9041 60.0801C67.2167 62.0879 70.0181 64.8319 72.0895 68.0976C74.1608 71.3632 75.4459 75.0619 75.8442 78.9046C75.9334 79.8144 75.9744 80.7282 75.9668 81.6423C75.9778 88.1337 75.9668 94.6251 75.9815 101.116C75.9815 101.528 75.8687 101.727 75.4777 101.924C70.9711 104.202 66.163 105.545 61.2212 106.427C58.4182 106.928 55.5931 107.353 52.7644 107.627C48.0935 108.082 43.4067 108.098 38.7199 107.801C33.4936 107.475 28.2966 106.786 23.1667 105.738C18.5832 104.797 14.0521 103.619 9.59165 102.208C9.17004 102.075 9.05359 101.878 9.05359 101.482C9.06094 94.5836 8.931 87.6831 9.09524 80.7876C9.26805 73.594 12.1508 67.5263 17.5656 62.7298C22.033 58.7735 27.2762 56.6353 33.2696 56.4766C36.3079 56.396 39.3511 56.462 42.3931 56.462L42.3956 56.4839Z" fill="#C9C9C9"/>
<path d="M42.5453 55.0892C31.4766 55.1161 22.4989 45.9529 22.9119 34.8189C23.2992 24.3821 31.9374 15.8625 42.7769 16.0017C45.4022 16.0308 47.9948 16.5855 50.4007 17.6327C52.8066 18.6799 54.9767 20.1983 56.7819 22.0977C58.5871 23.997 59.9907 26.2386 60.9091 28.6891C61.8276 31.1396 62.2422 33.7491 62.1283 36.3624C61.7079 46.8456 53.0452 55.0831 42.5453 55.0892Z" fill="#C9C9C9"/>
</g>
</svg>
